ISO-10303-21;
HEADER;
FILE_DESCRIPTION(('FreeCAD Model'),'2;1');
FILE_NAME('Open CASCADE Shape Model','2026-07-21T15:08:18',('FreeCAD'),(
    'FreeCAD'),'Open CASCADE STEP processor 7.8','FreeCAD','Unknown');
FILE_SCHEMA(('AUTOMOTIVE_DESIGN { 1 0 10303 214 1 1 1 1 }'));
ENDSEC;
DATA;
#1 = APPLICATION_PROTOCOL_DEFINITION('international standard',
  'automotive_design',2000,#2);
#2 = APPLICATION_CONTEXT(
  'core data for automotive mechanical design processes');
#3 = SHAPE_DEFINITION_REPRESENTATION(#4,#10);
#4 = PRODUCT_DEFINITION_SHAPE('','',#5);
#5 = PRODUCT_DEFINITION('design','',#6,#9);
#6 = PRODUCT_DEFINITION_FORMATION('','',#7);
#7 = PRODUCT('Open CASCADE STEP translator 7.8 1',
  'Open CASCADE STEP translator 7.8 1','',(#8));
#8 = PRODUCT_CONTEXT('',#2,'mechanical');
#9 = PRODUCT_DEFINITION_CONTEXT('part definition',#2,'design');
#10 = ADVANCED_BREP_SHAPE_REPRESENTATION('',(#11,#15),#484);
#11 = AXIS2_PLACEMENT_3D('',#12,#13,#14);
#12 = CARTESIAN_POINT('',(0.,0.,0.));
#13 = DIRECTION('',(0.,0.,1.));
#14 = DIRECTION('',(1.,0.,-0.));
#15 = MANIFOLD_SOLID_BREP('',#16);
#16 = CLOSED_SHELL('',(#17,#68,#88,#104,#136,#396,#429,#447,#456,#474));
#17 = ADVANCED_FACE('',(#18),#63,.T.);
#18 = FACE_BOUND('',#19,.F.);
#19 = EDGE_LOOP('',(#20,#29,#37,#46,#55,#62));
#20 = ORIENTED_EDGE('',*,*,#21,.F.);
#21 = EDGE_CURVE('',#22,#22,#24,.T.);
#22 = VERTEX_POINT('',#23);
#23 = CARTESIAN_POINT('',(7.85,-1.922695474661E-15,-6.));
#24 = CIRCLE('',#25,7.85);
#25 = AXIS2_PLACEMENT_3D('',#26,#27,#28);
#26 = CARTESIAN_POINT('',(0.,0.,-6.));
#27 = DIRECTION('',(0.,0.,1.));
#28 = DIRECTION('',(1.,0.,0.));
#29 = ORIENTED_EDGE('',*,*,#30,.T.);
#30 = EDGE_CURVE('',#22,#31,#33,.T.);
#31 = VERTEX_POINT('',#32);
#32 = CARTESIAN_POINT('',(7.85,-1.922695474661E-15,0.));
#33 = LINE('',#34,#35);
#34 = CARTESIAN_POINT('',(7.85,-1.922695474661E-15,-6.));
#35 = VECTOR('',#36,1.);
#36 = DIRECTION('',(0.,0.,1.));
#37 = ORIENTED_EDGE('',*,*,#38,.T.);
#38 = EDGE_CURVE('',#31,#39,#41,.T.);
#39 = VERTEX_POINT('',#40);
#40 = CARTESIAN_POINT('',(-5.030811737685E-14,7.85,0.));
#41 = CIRCLE('',#42,7.85);
#42 = AXIS2_PLACEMENT_3D('',#43,#44,#45);
#43 = CARTESIAN_POINT('',(0.,0.,0.));
#44 = DIRECTION('',(0.,0.,1.));
#45 = DIRECTION('',(1.,0.,0.));
#46 = ORIENTED_EDGE('',*,*,#47,.T.);
#47 = EDGE_CURVE('',#39,#48,#50,.T.);
#48 = VERTEX_POINT('',#49);
#49 = CARTESIAN_POINT('',(-4.952641496552E-14,-7.85,0.));
#50 = CIRCLE('',#51,7.85);
#51 = AXIS2_PLACEMENT_3D('',#52,#53,#54);
#52 = CARTESIAN_POINT('',(0.,0.,0.));
#53 = DIRECTION('',(0.,0.,1.));
#54 = DIRECTION('',(1.,0.,0.));
#55 = ORIENTED_EDGE('',*,*,#56,.T.);
#56 = EDGE_CURVE('',#48,#31,#57,.T.);
#57 = CIRCLE('',#58,7.85);
#58 = AXIS2_PLACEMENT_3D('',#59,#60,#61);
#59 = CARTESIAN_POINT('',(0.,0.,0.));
#60 = DIRECTION('',(0.,0.,1.));
#61 = DIRECTION('',(1.,0.,0.));
#62 = ORIENTED_EDGE('',*,*,#30,.F.);
#63 = CYLINDRICAL_SURFACE('',#64,7.85);
#64 = AXIS2_PLACEMENT_3D('',#65,#66,#67);
#65 = CARTESIAN_POINT('',(0.,0.,-6.));
#66 = DIRECTION('',(-0.,-0.,-1.));
#67 = DIRECTION('',(1.,0.,0.));
#68 = ADVANCED_FACE('',(#69,#72),#83,.F.);
#69 = FACE_BOUND('',#70,.F.);
#70 = EDGE_LOOP('',(#71));
#71 = ORIENTED_EDGE('',*,*,#21,.T.);
#72 = FACE_BOUND('',#73,.F.);
#73 = EDGE_LOOP('',(#74));
#74 = ORIENTED_EDGE('',*,*,#75,.F.);
#75 = EDGE_CURVE('',#76,#76,#78,.T.);
#76 = VERTEX_POINT('',#77);
#77 = CARTESIAN_POINT('',(5.,-1.224646799147E-15,-6.));
#78 = CIRCLE('',#79,5.);
#79 = AXIS2_PLACEMENT_3D('',#80,#81,#82);
#80 = CARTESIAN_POINT('',(0.,0.,-6.));
#81 = DIRECTION('',(0.,0.,1.));
#82 = DIRECTION('',(1.,0.,0.));
#83 = PLANE('',#84);
#84 = AXIS2_PLACEMENT_3D('',#85,#86,#87);
#85 = CARTESIAN_POINT('',(0.,0.,-6.));
#86 = DIRECTION('',(0.,0.,1.));
#87 = DIRECTION('',(1.,0.,0.));
#88 = ADVANCED_FACE('',(#89),#99,.T.);
#89 = FACE_BOUND('',#90,.T.);
#90 = EDGE_LOOP('',(#91,#92,#93));
#91 = ORIENTED_EDGE('',*,*,#56,.T.);
#92 = ORIENTED_EDGE('',*,*,#38,.T.);
#93 = ORIENTED_EDGE('',*,*,#94,.F.);
#94 = EDGE_CURVE('',#48,#39,#95,.T.);
#95 = LINE('',#96,#97);
#96 = CARTESIAN_POINT('',(0.,-8.,0.));
#97 = VECTOR('',#98,1.);
#98 = DIRECTION('',(0.,1.,0.));
#99 = PLANE('',#100);
#100 = AXIS2_PLACEMENT_3D('',#101,#102,#103);
#101 = CARTESIAN_POINT('',(0.,0.,0.));
#102 = DIRECTION('',(0.,0.,1.));
#103 = DIRECTION('',(1.,0.,0.));
#104 = ADVANCED_FACE('',(#105),#131,.F.);
#105 = FACE_BOUND('',#106,.F.);
#106 = EDGE_LOOP('',(#107,#118,#124,#125));
#107 = ORIENTED_EDGE('',*,*,#108,.T.);
#108 = EDGE_CURVE('',#109,#111,#113,.T.);
#109 = VERTEX_POINT('',#110);
#110 = CARTESIAN_POINT('',(4.898587196589E-16,8.,0.));
#111 = VERTEX_POINT('',#112);
#112 = CARTESIAN_POINT('',(-1.469576158977E-15,-8.,0.));
#113 = CIRCLE('',#114,8.);
#114 = AXIS2_PLACEMENT_3D('',#115,#116,#117);
#115 = CARTESIAN_POINT('',(0.,0.,0.));
#116 = DIRECTION('',(0.,0.,1.));
#117 = DIRECTION('',(1.,0.,0.));
#118 = ORIENTED_EDGE('',*,*,#119,.T.);
#119 = EDGE_CURVE('',#111,#48,#120,.T.);
#120 = LINE('',#121,#122);
#121 = CARTESIAN_POINT('',(0.,-8.,0.));
#122 = VECTOR('',#123,1.);
#123 = DIRECTION('',(0.,1.,0.));
#124 = ORIENTED_EDGE('',*,*,#47,.F.);
#125 = ORIENTED_EDGE('',*,*,#126,.T.);
#126 = EDGE_CURVE('',#39,#109,#127,.T.);
#127 = LINE('',#128,#129);
#128 = CARTESIAN_POINT('',(0.,-8.,0.));
#129 = VECTOR('',#130,1.);
#130 = DIRECTION('',(0.,1.,0.));
#131 = PLANE('',#132);
#132 = AXIS2_PLACEMENT_3D('',#133,#134,#135);
#133 = CARTESIAN_POINT('',(0.,0.,0.));
#134 = DIRECTION('',(0.,0.,1.));
#135 = DIRECTION('',(1.,0.,0.));
#136 = ADVANCED_FACE('',(#137,#277),#391,.T.);
#137 = FACE_BOUND('',#138,.F.);
#138 = EDGE_LOOP('',(#139,#148,#156,#213,#219,#220,#221,#276));
#139 = ORIENTED_EDGE('',*,*,#140,.F.);
#140 = EDGE_CURVE('',#141,#141,#143,.T.);
#141 = VERTEX_POINT('',#142);
#142 = CARTESIAN_POINT('',(5.,-1.224646799147E-15,-20.));
#143 = CIRCLE('',#144,5.);
#144 = AXIS2_PLACEMENT_3D('',#145,#146,#147);
#145 = CARTESIAN_POINT('',(0.,0.,-20.));
#146 = DIRECTION('',(0.,0.,1.));
#147 = DIRECTION('',(1.,0.,0.));
#148 = ORIENTED_EDGE('',*,*,#149,.T.);
#149 = EDGE_CURVE('',#141,#150,#152,.T.);
#150 = VERTEX_POINT('',#151);
#151 = CARTESIAN_POINT('',(5.,-8.572527594031E-16,-17.));
#152 = LINE('',#153,#154);
#153 = CARTESIAN_POINT('',(5.,-1.224646799147E-15,-20.));
#154 = VECTOR('',#155,1.);
#155 = DIRECTION('',(0.,0.,1.));
#156 = ORIENTED_EDGE('',*,*,#157,.T.);
#157 = EDGE_CURVE('',#150,#158,#160,.T.);
#158 = VERTEX_POINT('',#159);
#159 = CARTESIAN_POINT('',(5.,-1.224646799147E-15,-13.));
#160 = B_SPLINE_CURVE_WITH_KNOTS('',6,(#161,#162,#163,#164,#165,#166,
    #167,#168,#169,#170,#171,#172,#173,#174,#175,#176,#177,#178,#179,
    #180,#181,#182,#183,#184,#185,#186,#187,#188,#189,#190,#191,#192,
    #193,#194,#195,#196,#197,#198,#199,#200,#201,#202,#203,#204,#205,
    #206,#207,#208,#209,#210,#211,#212),.UNSPECIFIED.,.F.,.F.,(7,5,5,5,5
    ,5,5,5,5,5,7),(0.,8.585298828353E-02,0.197177829556,0.244273513261,
    0.421065813382,0.500086160578,0.578881265916,0.754408048201,
    0.803033736197,0.86599133263,1.),.UNSPECIFIED.);
#161 = CARTESIAN_POINT('',(5.,-2.449293598295E-16,-17.));
#162 = CARTESIAN_POINT('',(5.,0.106444870976,-17.));
#163 = CARTESIAN_POINT('',(4.997280678243,0.212716982388,-16.99320168361
    ));
#164 = CARTESIAN_POINT('',(4.99185858013,0.317897921158,-16.97964649428)
  );
#165 = CARTESIAN_POINT('',(4.983895551719,0.421077892119,-16.95959320068
    ));
#166 = CARTESIAN_POINT('',(4.973694774954,0.52138816929,-16.93351516289)
  );
#167 = CARTESIAN_POINT('',(4.946046285147,0.74335380261,-16.86139415673)
  );
#168 = CARTESIAN_POINT('',(4.92734836523,0.862494796347,-16.81172934204)
  );
#169 = CARTESIAN_POINT('',(4.90628223795,0.974974318257,-16.75424334371)
  );
#170 = CARTESIAN_POINT('',(4.883591624968,1.080443770671,-16.69000583462
    ));
#171 = CARTESIAN_POINT('',(4.859994366325,1.178679873042,-16.62004693817
    ));
#172 = CARTESIAN_POINT('',(4.826037713343,1.308029262693,-16.51378204522
    ));
#173 = CARTESIAN_POINT('',(4.8158860309,1.345205514105,-16.48131727807)
  );
#174 = CARTESIAN_POINT('',(4.805720969731,1.381111019093,-16.44803608836
    ));
#175 = CARTESIAN_POINT('',(4.795583400938,1.415753485563,-16.41399118339
    ));
#176 = CARTESIAN_POINT('',(4.785511488983,1.449141989487,-16.379230349)
  );
#177 = CARTESIAN_POINT('',(4.738111355309,1.601955908052,-16.21078127532
    ));
#178 = CARTESIAN_POINT('',(4.702070793963,1.70521643115,-16.06815350457)
  );
#179 = CARTESIAN_POINT('',(4.669339048273,1.791419595636,-15.91827556215
    ));
#180 = CARTESIAN_POINT('',(4.641395338149,1.86094605298,-15.7629055638)
  );
#181 = CARTESIAN_POINT('',(4.619304560136,1.914057363048,-15.6034175694)
  );
#182 = CARTESIAN_POINT('',(4.596792111419,1.967185800987,-15.36840138971
    ));
#183 = CARTESIAN_POINT('',(4.591146920898,1.980312439845,-15.29526113844
    ));
#184 = CARTESIAN_POINT('',(4.586871858266,1.990156331639,-15.2217158946)
  );
#185 = CARTESIAN_POINT('',(4.584007886941,1.996718691815,-15.14790195294
    ));
#186 = CARTESIAN_POINT('',(4.582575694956,2.,-15.07395297717));
#187 = CARTESIAN_POINT('',(4.582575694956,2.,-14.9262578205));
#188 = CARTESIAN_POINT('',(4.58399973322,1.996737370147,-14.85251958607)
  );
#189 = CARTESIAN_POINT('',(4.586847403973,1.990212362239,-14.7789152386)
  );
#190 = CARTESIAN_POINT('',(4.591098252967,1.980424503513,-14.70557731352
    ));
#191 = CARTESIAN_POINT('',(4.596711777483,1.967372596651,-14.63264093976
    ));
#192 = CARTESIAN_POINT('',(4.619032971943,1.914704436214,-14.39896948203
    ));
#193 = CARTESIAN_POINT('',(4.640881458459,1.862193181057,-14.24057462551
    ));
#194 = CARTESIAN_POINT('',(4.668509805823,1.793500303459,-14.08622274142
    ));
#195 = CARTESIAN_POINT('',(4.700879344831,1.708373101042,-13.93725894888
    ));
#196 = CARTESIAN_POINT('',(4.736548900635,1.606443210515,-13.79539849607
    ));
#197 = CARTESIAN_POINT('',(4.783928086183,1.454381600964,-13.62624280492
    ));
#198 = CARTESIAN_POINT('',(4.794318693973,1.420070326735,-13.59025936642
    ));
#199 = CARTESIAN_POINT('',(4.804783115499,1.384423152977,-13.55503438019
    ));
#200 = CARTESIAN_POINT('',(4.815279520211,1.347430033455,-13.52062013153
    ));
#201 = CARTESIAN_POINT('',(4.825763012492,1.309082424458,-13.48707446519
    ));
#202 = CARTESIAN_POINT('',(4.849680207834,1.217960295258,-13.41223456766
    ));
#203 = CARTESIAN_POINT('',(4.863076082728,1.164252336062,-13.37156017083
    ));
#204 = CARTESIAN_POINT('',(4.876264618431,1.108249866164,-13.33259086339
    ));
#205 = CARTESIAN_POINT('',(4.889129111502,1.049961913019,-13.29549018529
    ));
#206 = CARTESIAN_POINT('',(4.901546438495,0.989406804507,-13.26043253088
    ));
#207 = CARTESIAN_POINT('',(4.938595602228,0.792952662414,-13.15772584743
    ));
#208 = CARTESIAN_POINT('',(4.961420275543,0.647965130466,-13.09732740451
    ));
#209 = CARTESIAN_POINT('',(4.98016768165,0.493579752626,-13.04958030975)
  );
#210 = CARTESIAN_POINT('',(4.993324918623,0.332257862012,-13.01668785158
    ));
#211 = CARTESIAN_POINT('',(5.,0.166772166775,-13.));
#212 = CARTESIAN_POINT('',(5.,3.673940397442E-16,-13.));
#213 = ORIENTED_EDGE('',*,*,#214,.T.);
#214 = EDGE_CURVE('',#158,#76,#215,.T.);
#215 = LINE('',#216,#217);
#216 = CARTESIAN_POINT('',(5.,-1.224646799147E-15,-20.));
#217 = VECTOR('',#218,1.);
#218 = DIRECTION('',(0.,0.,1.));
#219 = ORIENTED_EDGE('',*,*,#75,.T.);
#220 = ORIENTED_EDGE('',*,*,#214,.F.);
#221 = ORIENTED_EDGE('',*,*,#222,.T.);
#222 = EDGE_CURVE('',#158,#150,#223,.T.);
#223 = B_SPLINE_CURVE_WITH_KNOTS('',6,(#224,#225,#226,#227,#228,#229,
    #230,#231,#232,#233,#234,#235,#236,#237,#238,#239,#240,#241,#242,
    #243,#244,#245,#246,#247,#248,#249,#250,#251,#252,#253,#254,#255,
    #256,#257,#258,#259,#260,#261,#262,#263,#264,#265,#266,#267,#268,
    #269,#270,#271,#272,#273,#274,#275),.UNSPECIFIED.,.F.,.F.,(7,5,5,5,5
    ,5,5,5,5,5,7),(0.,8.585298827419E-02,0.19717782955,0.244273513256,
    0.421065813383,0.500086160581,0.578881265921,0.754408048212,
    0.803033736209,0.86599133264,1.),.UNSPECIFIED.);
#224 = CARTESIAN_POINT('',(5.,-4.440892098501E-16,-13.));
#225 = CARTESIAN_POINT('',(5.,-0.10644487099,-13.));
#226 = CARTESIAN_POINT('',(4.997280678243,-0.212716982384,
    -13.00679831638));
#227 = CARTESIAN_POINT('',(4.991858580131,-0.317897921143,
    -13.02035350571));
#228 = CARTESIAN_POINT('',(4.98389555172,-0.421077892116,-13.04040679931
    ));
#229 = CARTESIAN_POINT('',(4.973694774952,-0.521388169304,
    -13.06648483711));
#230 = CARTESIAN_POINT('',(4.946046285147,-0.74335380261,-13.13860584326
    ));
#231 = CARTESIAN_POINT('',(4.92734836523,-0.862494796347,-13.18827065796
    ));
#232 = CARTESIAN_POINT('',(4.90628223795,-0.974974318257,-13.24575665629
    ));
#233 = CARTESIAN_POINT('',(4.883591624968,-1.080443770671,
    -13.30999416537));
#234 = CARTESIAN_POINT('',(4.859994366325,-1.178679873042,
    -13.37995306182));
#235 = CARTESIAN_POINT('',(4.826037713343,-1.308029262692,
    -13.48621795477));
#236 = CARTESIAN_POINT('',(4.8158860309,-1.345205514105,-13.51868272192)
  );
#237 = CARTESIAN_POINT('',(4.805720969731,-1.381111019093,
    -13.55196391163));
#238 = CARTESIAN_POINT('',(4.795583400938,-1.415753485563,-13.5860088166
    ));
#239 = CARTESIAN_POINT('',(4.785511488983,-1.449141989487,
    -13.62076965099));
#240 = CARTESIAN_POINT('',(4.738111355309,-1.601955908052,
    -13.78921872467));
#241 = CARTESIAN_POINT('',(4.702070793963,-1.70521643115,-13.93184649542
    ));
#242 = CARTESIAN_POINT('',(4.669339048273,-1.791419595636,
    -14.08172443785));
#243 = CARTESIAN_POINT('',(4.641395338149,-1.86094605298,-14.23709443619
    ));
#244 = CARTESIAN_POINT('',(4.619304560137,-1.914057363048,
    -14.39658243059));
#245 = CARTESIAN_POINT('',(4.596792111419,-1.967185800987,
    -14.63159861028));
#246 = CARTESIAN_POINT('',(4.591146920898,-1.980312439845,
    -14.70473886155));
#247 = CARTESIAN_POINT('',(4.586871858266,-1.990156331639,
    -14.77828410539));
#248 = CARTESIAN_POINT('',(4.584007886941,-1.996718691815,
    -14.85209804705));
#249 = CARTESIAN_POINT('',(4.582575694956,-2.,-14.92604702282));
#250 = CARTESIAN_POINT('',(4.582575694956,-2.,-15.07374217949));
#251 = CARTESIAN_POINT('',(4.58399973322,-1.996737370147,-15.14748041392
    ));
#252 = CARTESIAN_POINT('',(4.586847403973,-1.990212362239,
    -15.22108476139));
#253 = CARTESIAN_POINT('',(4.591098252967,-1.980424503513,
    -15.29442268647));
#254 = CARTESIAN_POINT('',(4.596711777483,-1.967372596651,
    -15.36735906023));
#255 = CARTESIAN_POINT('',(4.619032971943,-1.914704436214,
    -15.60103051796));
#256 = CARTESIAN_POINT('',(4.640881458459,-1.862193181057,
    -15.75942537448));
#257 = CARTESIAN_POINT('',(4.668509805823,-1.793500303459,
    -15.91377725857));
#258 = CARTESIAN_POINT('',(4.700879344831,-1.708373101042,
    -16.06274105111));
#259 = CARTESIAN_POINT('',(4.736548900635,-1.606443210515,
    -16.20460150392));
#260 = CARTESIAN_POINT('',(4.783928086183,-1.454381600964,
    -16.37375719507));
#261 = CARTESIAN_POINT('',(4.794318693973,-1.420070326735,
    -16.40974063357));
#262 = CARTESIAN_POINT('',(4.804783115499,-1.384423152978,-16.4449656198
    ));
#263 = CARTESIAN_POINT('',(4.815279520211,-1.347430033455,
    -16.47937986847));
#264 = CARTESIAN_POINT('',(4.825763012492,-1.309082424459,-16.5129255348
    ));
#265 = CARTESIAN_POINT('',(4.849680207833,-1.217960295261,
    -16.58776543233));
#266 = CARTESIAN_POINT('',(4.863076082728,-1.164252336062,
    -16.62843982916));
#267 = CARTESIAN_POINT('',(4.876264618432,-1.108249866161,
    -16.66740913661));
#268 = CARTESIAN_POINT('',(4.889129111502,-1.049961913018,-16.7045098147
    ));
#269 = CARTESIAN_POINT('',(4.901546438495,-0.989406804511,
    -16.73956746911));
#270 = CARTESIAN_POINT('',(4.938595602228,-0.792952662414,
    -16.84227415256));
#271 = CARTESIAN_POINT('',(4.961420275543,-0.647965130466,
    -16.90267259548));
#272 = CARTESIAN_POINT('',(4.98016768165,-0.493579752626,-16.95041969024
    ));
#273 = CARTESIAN_POINT('',(4.993324918623,-0.332257862012,
    -16.98331214841));
#274 = CARTESIAN_POINT('',(5.,-0.166772166775,-17.));
#275 = CARTESIAN_POINT('',(5.,-8.881784197001E-16,-17.));
#276 = ORIENTED_EDGE('',*,*,#149,.F.);
#277 = FACE_BOUND('',#278,.F.);
#278 = EDGE_LOOP('',(#279));
#279 = ORIENTED_EDGE('',*,*,#280,.F.);
#280 = EDGE_CURVE('',#281,#281,#283,.T.);
#281 = VERTEX_POINT('',#282);
#282 = CARTESIAN_POINT('',(-5.,-4.898587196589E-16,-17.));
#283 = B_SPLINE_CURVE_WITH_KNOTS('',6,(#284,#285,#286,#287,#288,#289,
    #290,#291,#292,#293,#294,#295,#296,#297,#298,#299,#300,#301,#302,
    #303,#304,#305,#306,#307,#308,#309,#310,#311,#312,#313,#314,#315,
    #316,#317,#318,#319,#320,#321,#322,#323,#324,#325,#326,#327,#328,
    #329,#330,#331,#332,#333,#334,#335,#336,#337,#338,#339,#340,#341,
    #342,#343,#344,#345,#346,#347,#348,#349,#350,#351,#352,#353,#354,
    #355,#356,#357,#358,#359,#360,#361,#362,#363,#364,#365,#366,#367,
    #368,#369,#370,#371,#372,#373,#374,#375,#376,#377,#378,#379,#380,
    #381,#382,#383,#384,#385,#386,#387,#388,#389,#390),.UNSPECIFIED.,.T.
  ,.F.,(7,5,5,5,5,5,5,5,5,5,5,5,5,5,5,5,5,5,5,5,5,7),(0.,
    4.291374580369E-02,9.855963577829E-02,0.122100484377,0.210470382492,
    0.249968822333,0.289354674691,0.377092001805,0.401397625359,
    0.43286707498,0.471564051027,0.529882802892,0.567820380373,
    0.598700023336,0.622241347264,0.710613029713,0.750112267093,
    0.789498914717,0.877238013423,0.901544127747,0.933014212788,1.),
  .UNSPECIFIED.);
#284 = CARTESIAN_POINT('',(-5.,0.,-17.));
#285 = CARTESIAN_POINT('',(-5.,0.106444870976,-17.));
#286 = CARTESIAN_POINT('',(-4.997280678243,0.212716982387,
    -16.99320168361));
#287 = CARTESIAN_POINT('',(-4.99185858013,0.317897921158,-16.97964649428
    ));
#288 = CARTESIAN_POINT('',(-4.983895551719,0.421077892119,
    -16.95959320068));
#289 = CARTESIAN_POINT('',(-4.973694774954,0.52138816929,-16.93351516289
    ));
#290 = CARTESIAN_POINT('',(-4.946046285147,0.74335380261,-16.86139415673
    ));
#291 = CARTESIAN_POINT('',(-4.92734836523,0.862494796347,-16.81172934204
    ));
#292 = CARTESIAN_POINT('',(-4.90628223795,0.974974318257,-16.75424334371
    ));
#293 = CARTESIAN_POINT('',(-4.883591624968,1.080443770671,
    -16.69000583462));
#294 = CARTESIAN_POINT('',(-4.859994366325,1.178679873042,
    -16.62004693817));
#295 = CARTESIAN_POINT('',(-4.826037713343,1.308029262693,
    -16.51378204522));
#296 = CARTESIAN_POINT('',(-4.8158860309,1.345205514105,-16.48131727807)
  );
#297 = CARTESIAN_POINT('',(-4.805720969731,1.381111019093,
    -16.44803608836));
#298 = CARTESIAN_POINT('',(-4.795583400938,1.415753485563,
    -16.41399118339));
#299 = CARTESIAN_POINT('',(-4.785511488983,1.449141989487,-16.379230349)
  );
#300 = CARTESIAN_POINT('',(-4.738111355309,1.601955908052,
    -16.21078127532));
#301 = CARTESIAN_POINT('',(-4.702070793963,1.705216431149,
    -16.06815350457));
#302 = CARTESIAN_POINT('',(-4.669339048273,1.791419595636,
    -15.91827556214));
#303 = CARTESIAN_POINT('',(-4.641395338149,1.86094605298,-15.7629055638)
  );
#304 = CARTESIAN_POINT('',(-4.619304560136,1.914057363048,-15.6034175694
    ));
#305 = CARTESIAN_POINT('',(-4.596792111419,1.967185800987,
    -15.36840138971));
#306 = CARTESIAN_POINT('',(-4.591146920898,1.980312439845,
    -15.29526113844));
#307 = CARTESIAN_POINT('',(-4.586871858266,1.990156331639,-15.2217158946
    ));
#308 = CARTESIAN_POINT('',(-4.584007886941,1.996718691815,
    -15.14790195294));
#309 = CARTESIAN_POINT('',(-4.582575694956,2.,-15.07395297717));
#310 = CARTESIAN_POINT('',(-4.582575694956,2.,-14.9262578205));
#311 = CARTESIAN_POINT('',(-4.58399973322,1.996737370147,-14.85251958607
    ));
#312 = CARTESIAN_POINT('',(-4.586847403973,1.990212362239,-14.7789152386
    ));
#313 = CARTESIAN_POINT('',(-4.591098252967,1.980424503513,
    -14.70557731352));
#314 = CARTESIAN_POINT('',(-4.596711777483,1.967372596651,
    -14.63264093976));
#315 = CARTESIAN_POINT('',(-4.619032971943,1.914704436214,
    -14.39896948203));
#316 = CARTESIAN_POINT('',(-4.640881458459,1.862193181057,
    -14.24057462551));
#317 = CARTESIAN_POINT('',(-4.668509805823,1.793500303459,
    -14.08622274142));
#318 = CARTESIAN_POINT('',(-4.700879344831,1.708373101042,
    -13.93725894888));
#319 = CARTESIAN_POINT('',(-4.736548900635,1.606443210515,
    -13.79539849607));
#320 = CARTESIAN_POINT('',(-4.783928086183,1.454381600964,
    -13.62624280492));
#321 = CARTESIAN_POINT('',(-4.794318693973,1.420070326735,
    -13.59025936642));
#322 = CARTESIAN_POINT('',(-4.804783115499,1.384423152977,
    -13.55503438019));
#323 = CARTESIAN_POINT('',(-4.815279520211,1.347430033455,
    -13.52062013153));
#324 = CARTESIAN_POINT('',(-4.825763012492,1.309082424458,
    -13.48707446519));
#325 = CARTESIAN_POINT('',(-4.849680207833,1.217960295261,
    -13.41223456766));
#326 = CARTESIAN_POINT('',(-4.863076082728,1.164252336062,
    -13.37156017083));
#327 = CARTESIAN_POINT('',(-4.876264618432,1.108249866161,
    -13.33259086338));
#328 = CARTESIAN_POINT('',(-4.889129111502,1.049961913018,
    -13.29549018529));
#329 = CARTESIAN_POINT('',(-4.901546438495,0.989406804511,
    -13.26043253089));
#330 = CARTESIAN_POINT('',(-4.927950753687,0.849397245157,
    -13.18723520687));
#331 = CARTESIAN_POINT('',(-4.941660074711,0.768707424038,
    -13.15019059117));
#332 = CARTESIAN_POINT('',(-4.95423518081,0.684792667689,-13.1169399428)
  );
#333 = CARTESIAN_POINT('',(-4.965405775197,0.597943408963,
    -13.08790212164));
#334 = CARTESIAN_POINT('',(-4.974927706381,0.508488894733,
    -13.06344930966));
#335 = CARTESIAN_POINT('',(-4.994157425658,0.278606084236,
    -13.01446688329));
#336 = CARTESIAN_POINT('',(-5.001503454009,0.135422932311,
    -12.99620478017));
#337 = CARTESIAN_POINT('',(-5.003850088585,-1.028512970453E-02,
    -12.99048183427));
#338 = CARTESIAN_POINT('',(-5.000894766205,-0.15587015128,
    -12.99770774098));
#339 = CARTESIAN_POINT('',(-4.992981394603,-0.298689001082,
    -13.01740979498));
#340 = CARTESIAN_POINT('',(-4.973088729826,-0.525796545282,
    -13.06817434557));
#341 = CARTESIAN_POINT('',(-4.963497767221,-0.61308740698,
    -13.09285824679));
#342 = CARTESIAN_POINT('',(-4.952352208275,-0.697826467061,
    -13.12190107025));
#343 = CARTESIAN_POINT('',(-4.939883805623,-0.779714947187,
    -13.15494959727));
#344 = CARTESIAN_POINT('',(-4.926346669934,-0.858489828735,
    -13.19161047291));
#345 = CARTESIAN_POINT('',(-4.900329525758,-0.995327590187,
    -13.26387082085));
#346 = CARTESIAN_POINT('',(-4.888111213857,-1.054570626284,
    -13.29842696259));
#347 = CARTESIAN_POINT('',(-4.875469519043,-1.111629238805,
    -13.33493977237));
#348 = CARTESIAN_POINT('',(-4.86252042413,-1.166486967566,-13.3732451177
    ));
#349 = CARTESIAN_POINT('',(-4.849373900796,-1.21913588426,
    -13.41318904162));
#350 = CARTESIAN_POINT('',(-4.826037713343,-1.308029262692,
    -13.48621795477));
#351 = CARTESIAN_POINT('',(-4.8158860309,-1.345205514105,-13.51868272192
    ));
#352 = CARTESIAN_POINT('',(-4.805720969731,-1.381111019093,
    -13.55196391163));
#353 = CARTESIAN_POINT('',(-4.795583400938,-1.415753485563,
    -13.5860088166));
#354 = CARTESIAN_POINT('',(-4.785511488983,-1.449141989487,
    -13.62076965099));
#355 = CARTESIAN_POINT('',(-4.738111355309,-1.601955908052,
    -13.78921872467));
#356 = CARTESIAN_POINT('',(-4.702070793963,-1.70521643115,
    -13.93184649542));
#357 = CARTESIAN_POINT('',(-4.669339048273,-1.791419595636,
    -14.08172443785));
#358 = CARTESIAN_POINT('',(-4.641395338149,-1.86094605298,
    -14.23709443619));
#359 = CARTESIAN_POINT('',(-4.619304560137,-1.914057363048,
    -14.39658243059));
#360 = CARTESIAN_POINT('',(-4.596792111419,-1.967185800987,
    -14.63159861028));
#361 = CARTESIAN_POINT('',(-4.591146920898,-1.980312439845,
    -14.70473886155));
#362 = CARTESIAN_POINT('',(-4.586871858266,-1.990156331639,
    -14.77828410539));
#363 = CARTESIAN_POINT('',(-4.584007886941,-1.996718691815,
    -14.85209804705));
#364 = CARTESIAN_POINT('',(-4.582575694956,-2.,-14.92604702282));
#365 = CARTESIAN_POINT('',(-4.582575694956,-2.,-15.07374217949));
#366 = CARTESIAN_POINT('',(-4.58399973322,-1.996737370147,
    -15.14748041392));
#367 = CARTESIAN_POINT('',(-4.586847403973,-1.990212362239,
    -15.22108476139));
#368 = CARTESIAN_POINT('',(-4.591098252967,-1.980424503513,
    -15.29442268647));
#369 = CARTESIAN_POINT('',(-4.596711777483,-1.967372596651,
    -15.36735906023));
#370 = CARTESIAN_POINT('',(-4.619032971948,-1.914704436201,
    -15.60103051802));
#371 = CARTESIAN_POINT('',(-4.640881458452,-1.862193181067,
    -15.75942537438));
#372 = CARTESIAN_POINT('',(-4.668509805812,-1.793500303503,
    -15.91377725859));
#373 = CARTESIAN_POINT('',(-4.700879344856,-1.70837310096,
    -16.06274105118));
#374 = CARTESIAN_POINT('',(-4.736548900621,-1.60644321056,
    -16.20460150387));
#375 = CARTESIAN_POINT('',(-4.783928086183,-1.454381600964,
    -16.37375719507));
#376 = CARTESIAN_POINT('',(-4.794318693973,-1.420070326735,
    -16.40974063357));
#377 = CARTESIAN_POINT('',(-4.804783115499,-1.384423152978,
    -16.4449656198));
#378 = CARTESIAN_POINT('',(-4.815279520211,-1.347430033455,
    -16.47937986847));
#379 = CARTESIAN_POINT('',(-4.825763012492,-1.309082424459,
    -16.5129255348));
#380 = CARTESIAN_POINT('',(-4.849680207833,-1.217960295261,
    -16.58776543233));
#381 = CARTESIAN_POINT('',(-4.863076082728,-1.164252336062,
    -16.62843982916));
#382 = CARTESIAN_POINT('',(-4.876264618432,-1.108249866161,
    -16.66740913661));
#383 = CARTESIAN_POINT('',(-4.889129111502,-1.049961913018,
    -16.7045098147));
#384 = CARTESIAN_POINT('',(-4.901546438495,-0.989406804511,
    -16.73956746911));
#385 = CARTESIAN_POINT('',(-4.938595602228,-0.792952662414,
    -16.84227415256));
#386 = CARTESIAN_POINT('',(-4.961420275543,-0.647965130466,
    -16.90267259548));
#387 = CARTESIAN_POINT('',(-4.98016768165,-0.493579752625,
    -16.95041969024));
#388 = CARTESIAN_POINT('',(-4.993324918623,-0.332257862012,
    -16.98331214841));
#389 = CARTESIAN_POINT('',(-5.,-0.166772166775,-17.));
#390 = CARTESIAN_POINT('',(-5.,0.,-17.));
#391 = CYLINDRICAL_SURFACE('',#392,5.);
#392 = AXIS2_PLACEMENT_3D('',#393,#394,#395);
#393 = CARTESIAN_POINT('',(0.,0.,-20.));
#394 = DIRECTION('',(-0.,-0.,-1.));
#395 = DIRECTION('',(1.,0.,0.));
#396 = ADVANCED_FACE('',(#397),#424,.T.);
#397 = FACE_BOUND('',#398,.T.);
#398 = EDGE_LOOP('',(#399,#407,#415,#421,#422,#423));
#399 = ORIENTED_EDGE('',*,*,#400,.F.);
#400 = EDGE_CURVE('',#401,#109,#403,.T.);
#401 = VERTEX_POINT('',#402);
#402 = CARTESIAN_POINT('',(4.898587196589E-16,8.,18.));
#403 = LINE('',#404,#405);
#404 = CARTESIAN_POINT('',(0.,8.,0.));
#405 = VECTOR('',#406,1.);
#406 = DIRECTION('',(-0.,-0.,-1.));
#407 = ORIENTED_EDGE('',*,*,#408,.F.);
#408 = EDGE_CURVE('',#409,#401,#411,.T.);
#409 = VERTEX_POINT('',#410);
#410 = CARTESIAN_POINT('',(-1.469576158977E-15,-8.,18.));
#411 = LINE('',#412,#413);
#412 = CARTESIAN_POINT('',(0.,-8.,18.));
#413 = VECTOR('',#414,1.);
#414 = DIRECTION('',(0.,1.,0.));
#415 = ORIENTED_EDGE('',*,*,#416,.T.);
#416 = EDGE_CURVE('',#409,#111,#417,.T.);
#417 = LINE('',#418,#419);
#418 = CARTESIAN_POINT('',(0.,-8.,0.));
#419 = VECTOR('',#420,1.);
#420 = DIRECTION('',(-0.,-0.,-1.));
#421 = ORIENTED_EDGE('',*,*,#119,.T.);
#422 = ORIENTED_EDGE('',*,*,#94,.T.);
#423 = ORIENTED_EDGE('',*,*,#126,.T.);
#424 = PLANE('',#425);
#425 = AXIS2_PLACEMENT_3D('',#426,#427,#428);
#426 = CARTESIAN_POINT('',(0.,-16.,-1.));
#427 = DIRECTION('',(1.,0.,0.));
#428 = DIRECTION('',(0.,0.,1.));
#429 = ADVANCED_FACE('',(#430),#442,.T.);
#430 = FACE_BOUND('',#431,.F.);
#431 = EDGE_LOOP('',(#432,#433,#434,#441));
#432 = ORIENTED_EDGE('',*,*,#108,.F.);
#433 = ORIENTED_EDGE('',*,*,#400,.F.);
#434 = ORIENTED_EDGE('',*,*,#435,.T.);
#435 = EDGE_CURVE('',#401,#409,#436,.T.);
#436 = CIRCLE('',#437,8.);
#437 = AXIS2_PLACEMENT_3D('',#438,#439,#440);
#438 = CARTESIAN_POINT('',(0.,0.,18.));
#439 = DIRECTION('',(0.,0.,1.));
#440 = DIRECTION('',(1.,0.,0.));
#441 = ORIENTED_EDGE('',*,*,#416,.T.);
#442 = CYLINDRICAL_SURFACE('',#443,8.);
#443 = AXIS2_PLACEMENT_3D('',#444,#445,#446);
#444 = CARTESIAN_POINT('',(0.,0.,0.));
#445 = DIRECTION('',(-0.,-0.,-1.));
#446 = DIRECTION('',(1.,0.,0.));
#447 = ADVANCED_FACE('',(#448),#451,.F.);
#448 = FACE_BOUND('',#449,.T.);
#449 = EDGE_LOOP('',(#450));
#450 = ORIENTED_EDGE('',*,*,#140,.F.);
#451 = PLANE('',#452);
#452 = AXIS2_PLACEMENT_3D('',#453,#454,#455);
#453 = CARTESIAN_POINT('',(0.,0.,-20.));
#454 = DIRECTION('',(0.,0.,1.));
#455 = DIRECTION('',(1.,0.,0.));
#456 = ADVANCED_FACE('',(#457),#469,.F.);
#457 = FACE_BOUND('',#458,.T.);
#458 = EDGE_LOOP('',(#459,#460,#466,#467,#468));
#459 = ORIENTED_EDGE('',*,*,#222,.T.);
#460 = ORIENTED_EDGE('',*,*,#461,.F.);
#461 = EDGE_CURVE('',#281,#150,#462,.T.);
#462 = LINE('',#463,#464);
#463 = CARTESIAN_POINT('',(-10.,-4.898587196589E-16,-17.));
#464 = VECTOR('',#465,1.);
#465 = DIRECTION('',(1.,0.,-2.22044604925E-16));
#466 = ORIENTED_EDGE('',*,*,#280,.F.);
#467 = ORIENTED_EDGE('',*,*,#461,.T.);
#468 = ORIENTED_EDGE('',*,*,#157,.T.);
#469 = CYLINDRICAL_SURFACE('',#470,2.);
#470 = AXIS2_PLACEMENT_3D('',#471,#472,#473);
#471 = CARTESIAN_POINT('',(-10.,0.,-15.));
#472 = DIRECTION('',(-1.,-0.,2.22044604925E-16));
#473 = DIRECTION('',(-2.22044604925E-16,0.,-1.));
#474 = ADVANCED_FACE('',(#475),#479,.T.);
#475 = FACE_BOUND('',#476,.T.);
#476 = EDGE_LOOP('',(#477,#478));
#477 = ORIENTED_EDGE('',*,*,#408,.T.);
#478 = ORIENTED_EDGE('',*,*,#435,.T.);
#479 = PLANE('',#480);
#480 = AXIS2_PLACEMENT_3D('',#481,#482,#483);
#481 = CARTESIAN_POINT('',(0.,0.,18.));
#482 = DIRECTION('',(0.,0.,1.));
#483 = DIRECTION('',(1.,0.,0.));
#484 = ( GEOMETRIC_REPRESENTATION_CONTEXT(3) 
GLOBAL_UNCERTAINTY_ASSIGNED_CONTEXT((#488)) GLOBAL_UNIT_ASSIGNED_CONTEXT
((#485,#486,#487)) REPRESENTATION_CONTEXT('Context #1',
  '3D Context with UNIT and UNCERTAINTY') );
#485 = ( LENGTH_UNIT() NAMED_UNIT(*) SI_UNIT(.MILLI.,.METRE.) );
#486 = ( NAMED_UNIT(*) PLANE_ANGLE_UNIT() SI_UNIT($,.RADIAN.) );
#487 = ( NAMED_UNIT(*) SI_UNIT($,.STERADIAN.) SOLID_ANGLE_UNIT() );
#488 = UNCERTAINTY_MEASURE_WITH_UNIT(LENGTH_MEASURE(1.E-05),#485,
  'distance_accuracy_value','confusion accuracy');
#489 = PRODUCT_RELATED_PRODUCT_CATEGORY('part',$,(#7));
ENDSEC;
END-ISO-10303-21;
