ISO-10303-21;
HEADER;
FILE_DESCRIPTION(('Open CASCADE Model'),'2;1');
FILE_NAME('Open CASCADE Shape Model','2026-06-20T16:54:46',('Author'),(
    'Open CASCADE'),'Open CASCADE STEP processor 7.8','Open CASCADE 7.8'
  ,'Unknown');
FILE_SCHEMA(('AUTOMOTIVE_DESIGN { 1 0 10303 214 1 1 1 1 }'));
ENDSEC;
DATA;
#1 = APPLICATION_PROTOCOL_DEFINITION('international standard',
  'automotive_design',2000,#2);
#2 = APPLICATION_CONTEXT(
  'core data for automotive mechanical design processes');
#3 = SHAPE_DEFINITION_REPRESENTATION(#4,#10);
#4 = PRODUCT_DEFINITION_SHAPE('','',#5);
#5 = PRODUCT_DEFINITION('design','',#6,#9);
#6 = PRODUCT_DEFINITION_FORMATION('','',#7);
#7 = PRODUCT('Open CASCADE STEP translator 7.8 8',
  'Open CASCADE STEP translator 7.8 8','',(#8));
#8 = PRODUCT_CONTEXT('',#2,'mechanical');
#9 = PRODUCT_DEFINITION_CONTEXT('part definition',#2,'design');
#10 = ADVANCED_BREP_SHAPE_REPRESENTATION('',(#11,#15),#1286);
#11 = AXIS2_PLACEMENT_3D('',#12,#13,#14);
#12 = CARTESIAN_POINT('',(0.,0.,0.));
#13 = DIRECTION('',(0.,0.,1.));
#14 = DIRECTION('',(1.,0.,-0.));
#15 = BREP_WITH_VOIDS('',#16,(#1118));
#16 = CLOSED_SHELL('',(#17,#184,#213,#290,#329,#334,#369,#696,#1005,
    #1028,#1056,#1062,#1108,#1113));
#17 = ADVANCED_FACE('',(#18),#33,.T.);
#18 = FACE_BOUND('',#19,.F.);
#19 = EDGE_LOOP('',(#20,#56,#79,#106,#107,#131));
#20 = ORIENTED_EDGE('',*,*,#21,.F.);
#21 = EDGE_CURVE('',#22,#24,#26,.T.);
#22 = VERTEX_POINT('',#23);
#23 = CARTESIAN_POINT('',(10.8,0.,0.));
#24 = VERTEX_POINT('',#25);
#25 = CARTESIAN_POINT('',(0.,10.8,0.));
#26 = SURFACE_CURVE('',#27,(#32,#44),.PCURVE_S1.);
#27 = CIRCLE('',#28,10.8);
#28 = AXIS2_PLACEMENT_3D('',#29,#30,#31);
#29 = CARTESIAN_POINT('',(0.,0.,0.));
#30 = DIRECTION('',(0.,0.,1.));
#31 = DIRECTION('',(1.,0.,0.));
#32 = PCURVE('',#33,#38);
#33 = CYLINDRICAL_SURFACE('',#34,10.8);
#34 = AXIS2_PLACEMENT_3D('',#35,#36,#37);
#35 = CARTESIAN_POINT('',(0.,0.,0.));
#36 = DIRECTION('',(-0.,-0.,-1.));
#37 = DIRECTION('',(1.,0.,0.));
#38 = DEFINITIONAL_REPRESENTATION('',(#39),#43);
#39 = LINE('',#40,#41);
#40 = CARTESIAN_POINT('',(-0.,0.));
#41 = VECTOR('',#42,1.);
#42 = DIRECTION('',(-1.,0.));
#43 = ( GEOMETRIC_REPRESENTATION_CONTEXT(2) 
PARAMETRIC_REPRESENTATION_CONTEXT() REPRESENTATION_CONTEXT('2D SPACE',''
  ) );
#44 = PCURVE('',#45,#50);
#45 = PLANE('',#46);
#46 = AXIS2_PLACEMENT_3D('',#47,#48,#49);
#47 = CARTESIAN_POINT('',(2.53229654174E-16,-4.40872847693E-16,0.));
#48 = DIRECTION('',(0.,0.,1.));
#49 = DIRECTION('',(1.,0.,-0.));
#50 = DEFINITIONAL_REPRESENTATION('',(#51),#55);
#51 = CIRCLE('',#52,10.8);
#52 = AXIS2_PLACEMENT_2D('',#53,#54);
#53 = CARTESIAN_POINT('',(-2.53229654174E-16,4.40872847693E-16));
#54 = DIRECTION('',(1.,0.));
#55 = ( GEOMETRIC_REPRESENTATION_CONTEXT(2) 
PARAMETRIC_REPRESENTATION_CONTEXT() REPRESENTATION_CONTEXT('2D SPACE',''
  ) );
#56 = ORIENTED_EDGE('',*,*,#57,.T.);
#57 = EDGE_CURVE('',#22,#58,#60,.T.);
#58 = VERTEX_POINT('',#59);
#59 = CARTESIAN_POINT('',(10.8,0.,40.));
#60 = SEAM_CURVE('',#61,(#65,#72),.PCURVE_S1.);
#61 = LINE('',#62,#63);
#62 = CARTESIAN_POINT('',(10.8,0.,0.));
#63 = VECTOR('',#64,1.);
#64 = DIRECTION('',(0.,0.,1.));
#65 = PCURVE('',#33,#66);
#66 = DEFINITIONAL_REPRESENTATION('',(#67),#71);
#67 = LINE('',#68,#69);
#68 = CARTESIAN_POINT('',(-6.28318530718,0.));
#69 = VECTOR('',#70,1.);
#70 = DIRECTION('',(-0.,-1.));
#71 = ( GEOMETRIC_REPRESENTATION_CONTEXT(2) 
PARAMETRIC_REPRESENTATION_CONTEXT() REPRESENTATION_CONTEXT('2D SPACE',''
  ) );
#72 = PCURVE('',#33,#73);
#73 = DEFINITIONAL_REPRESENTATION('',(#74),#78);
#74 = LINE('',#75,#76);
#75 = CARTESIAN_POINT('',(-0.,0.));
#76 = VECTOR('',#77,1.);
#77 = DIRECTION('',(-0.,-1.));
#78 = ( GEOMETRIC_REPRESENTATION_CONTEXT(2) 
PARAMETRIC_REPRESENTATION_CONTEXT() REPRESENTATION_CONTEXT('2D SPACE',''
  ) );
#79 = ORIENTED_EDGE('',*,*,#80,.T.);
#80 = EDGE_CURVE('',#58,#58,#81,.T.);
#81 = SURFACE_CURVE('',#82,(#87,#94),.PCURVE_S1.);
#82 = CIRCLE('',#83,10.8);
#83 = AXIS2_PLACEMENT_3D('',#84,#85,#86);
#84 = CARTESIAN_POINT('',(0.,0.,40.));
#85 = DIRECTION('',(0.,0.,1.));
#86 = DIRECTION('',(1.,0.,0.));
#87 = PCURVE('',#33,#88);
#88 = DEFINITIONAL_REPRESENTATION('',(#89),#93);
#89 = LINE('',#90,#91);
#90 = CARTESIAN_POINT('',(-0.,-40.));
#91 = VECTOR('',#92,1.);
#92 = DIRECTION('',(-1.,0.));
#93 = ( GEOMETRIC_REPRESENTATION_CONTEXT(2) 
PARAMETRIC_REPRESENTATION_CONTEXT() REPRESENTATION_CONTEXT('2D SPACE',''
  ) );
#94 = PCURVE('',#95,#100);
#95 = PLANE('',#96);
#96 = AXIS2_PLACEMENT_3D('',#97,#98,#99);
#97 = CARTESIAN_POINT('',(2.53229654174E-16,-4.40872847693E-16,40.));
#98 = DIRECTION('',(0.,0.,1.));
#99 = DIRECTION('',(1.,0.,-0.));
#100 = DEFINITIONAL_REPRESENTATION('',(#101),#105);
#101 = CIRCLE('',#102,10.8);
#102 = AXIS2_PLACEMENT_2D('',#103,#104);
#103 = CARTESIAN_POINT('',(-2.53229654174E-16,4.40872847693E-16));
#104 = DIRECTION('',(1.,0.));
#105 = ( GEOMETRIC_REPRESENTATION_CONTEXT(2) 
PARAMETRIC_REPRESENTATION_CONTEXT() REPRESENTATION_CONTEXT('2D SPACE',''
  ) );
#106 = ORIENTED_EDGE('',*,*,#57,.F.);
#107 = ORIENTED_EDGE('',*,*,#108,.F.);
#108 = EDGE_CURVE('',#109,#22,#111,.T.);
#109 = VERTEX_POINT('',#110);
#110 = CARTESIAN_POINT('',(3.804199559071E-15,-10.8,3.411889153846E-13)
  );
#111 = SURFACE_CURVE('',#112,(#117,#124),.PCURVE_S1.);
#112 = CIRCLE('',#113,10.8);
#113 = AXIS2_PLACEMENT_3D('',#114,#115,#116);
#114 = CARTESIAN_POINT('',(0.,0.,0.));
#115 = DIRECTION('',(0.,0.,1.));
#116 = DIRECTION('',(1.,0.,0.));
#117 = PCURVE('',#33,#118);
#118 = DEFINITIONAL_REPRESENTATION('',(#119),#123);
#119 = LINE('',#120,#121);
#120 = CARTESIAN_POINT('',(-0.,0.));
#121 = VECTOR('',#122,1.);
#122 = DIRECTION('',(-1.,0.));
#123 = ( GEOMETRIC_REPRESENTATION_CONTEXT(2) 
PARAMETRIC_REPRESENTATION_CONTEXT() REPRESENTATION_CONTEXT('2D SPACE',''
  ) );
#124 = PCURVE('',#45,#125);
#125 = DEFINITIONAL_REPRESENTATION('',(#126),#130);
#126 = CIRCLE('',#127,10.8);
#127 = AXIS2_PLACEMENT_2D('',#128,#129);
#128 = CARTESIAN_POINT('',(-2.53229654174E-16,4.40872847693E-16));
#129 = DIRECTION('',(1.,0.));
#130 = ( GEOMETRIC_REPRESENTATION_CONTEXT(2) 
PARAMETRIC_REPRESENTATION_CONTEXT() REPRESENTATION_CONTEXT('2D SPACE',''
  ) );
#131 = ORIENTED_EDGE('',*,*,#132,.T.);
#132 = EDGE_CURVE('',#109,#24,#133,.T.);
#133 = SURFACE_CURVE('',#134,(#139,#159),.PCURVE_S1.);
#134 = ELLIPSE('',#135,15.273506473629,10.8);
#135 = AXIS2_PLACEMENT_3D('',#136,#137,#138);
#136 = CARTESIAN_POINT('',(0.,0.,0.));
#137 = DIRECTION('',(-0.707106781187,-0.,-0.707106781187));
#138 = DIRECTION('',(0.707106781187,0.,-0.707106781187));
#139 = PCURVE('',#33,#140);
#140 = DEFINITIONAL_REPRESENTATION('',(#141),#158);
#141 = B_SPLINE_CURVE_WITH_KNOTS('',8,(#142,#143,#144,#145,#146,#147,
    #148,#149,#150,#151,#152,#153,#154,#155,#156,#157),.UNSPECIFIED.,.F.
  ,.F.,(9,7,9),(1.570796271422,3.141592625904,4.712388980385),
  .UNSPECIFIED.);
#142 = CARTESIAN_POINT('',(-4.712389035757,5.980232228038E-07));
#143 = CARTESIAN_POINT('',(-4.516039491447,-2.120574480526));
#144 = CARTESIAN_POINT('',(-4.319689947138,-4.241150088915));
#145 = CARTESIAN_POINT('',(-4.123340402806,-6.237142807629));
#146 = CARTESIAN_POINT('',(-3.926990858519,-7.983994187271));
#147 = CARTESIAN_POINT('',(-3.730641314187,-9.372434677451));
#148 = CARTESIAN_POINT('',(-3.534291769897,-10.32414348514));
#149 = CARTESIAN_POINT('',(-3.337942225586,-10.79999994128));
#150 = CARTESIAN_POINT('',(-2.945243136966,-10.80000005871));
#151 = CARTESIAN_POINT('',(-2.748893592651,-10.32414371997));
#152 = CARTESIAN_POINT('',(-2.552544048353,-9.372435022873));
#153 = CARTESIAN_POINT('',(-2.356194504016,-7.983994629343));
#154 = CARTESIAN_POINT('',(-2.159844959739,-6.237143326674));
#155 = CARTESIAN_POINT('',(-1.963495415412,-4.241150660572));
#156 = CARTESIAN_POINT('',(-1.767145871105,-2.12057507855));
#157 = CARTESIAN_POINT('',(-1.570796326795,-1.983927814619E-15));
#158 = ( GEOMETRIC_REPRESENTATION_CONTEXT(2) 
PARAMETRIC_REPRESENTATION_CONTEXT() REPRESENTATION_CONTEXT('2D SPACE',''
  ) );
#159 = PCURVE('',#160,#165);
#160 = CYLINDRICAL_SURFACE('',#161,10.8);
#161 = AXIS2_PLACEMENT_3D('',#162,#163,#164);
#162 = CARTESIAN_POINT('',(0.,0.,0.));
#163 = DIRECTION('',(1.,0.,0.));
#164 = DIRECTION('',(0.,1.,0.));
#165 = DEFINITIONAL_REPRESENTATION('',(#166),#183);
#166 = B_SPLINE_CURVE_WITH_KNOTS('',8,(#167,#168,#169,#170,#171,#172,
    #173,#174,#175,#176,#177,#178,#179,#180,#181,#182),.UNSPECIFIED.,.F.
  ,.F.,(9,7,9),(1.570796271422,3.141592625904,4.712388980385),
  .UNSPECIFIED.);
#167 = CARTESIAN_POINT('',(3.141592708962,5.980232228038E-07));
#168 = CARTESIAN_POINT('',(2.945243164652,-2.120574480526));
#169 = CARTESIAN_POINT('',(2.748893620344,-4.241150088915));
#170 = CARTESIAN_POINT('',(2.552544076018,-6.237142807629));
#171 = CARTESIAN_POINT('',(2.356194531725,-7.983994187271));
#172 = CARTESIAN_POINT('',(2.159844987402,-9.372434677451));
#173 = CARTESIAN_POINT('',(1.963495443104,-10.32414348514));
#174 = CARTESIAN_POINT('',(1.767145898791,-10.79999994128));
#175 = CARTESIAN_POINT('',(1.374446810171,-10.80000005871));
#176 = CARTESIAN_POINT('',(1.17809726586,-10.32414371997));
#177 = CARTESIAN_POINT('',(0.981747721552,-9.372435022873));
#178 = CARTESIAN_POINT('',(0.785398177236,-7.983994629343));
#179 = CARTESIAN_POINT('',(0.589048632931,-6.237143326674));
#180 = CARTESIAN_POINT('',(0.392699088619,-4.241150660572));
#181 = CARTESIAN_POINT('',(0.19634954431,-2.12057507855));
#182 = CARTESIAN_POINT('',(1.836970198721E-16,-1.983927814619E-15));
#183 = ( GEOMETRIC_REPRESENTATION_CONTEXT(2) 
PARAMETRIC_REPRESENTATION_CONTEXT() REPRESENTATION_CONTEXT('2D SPACE',''
  ) );
#184 = ADVANCED_FACE('',(#185),#45,.F.);
#185 = FACE_BOUND('',#186,.F.);
#186 = EDGE_LOOP('',(#187,#188,#189));
#187 = ORIENTED_EDGE('',*,*,#108,.T.);
#188 = ORIENTED_EDGE('',*,*,#21,.T.);
#189 = ORIENTED_EDGE('',*,*,#190,.F.);
#190 = EDGE_CURVE('',#109,#24,#191,.T.);
#191 = SURFACE_CURVE('',#192,(#196,#202),.PCURVE_S1.);
#192 = LINE('',#193,#194);
#193 = CARTESIAN_POINT('',(0.,-9.382159675954E-17,0.));
#194 = VECTOR('',#195,1.);
#195 = DIRECTION('',(0.,1.,0.));
#196 = PCURVE('',#45,#197);
#197 = DEFINITIONAL_REPRESENTATION('',(#198),#201);
#198 = B_SPLINE_CURVE_WITH_KNOTS('',1,(#199,#200),.UNSPECIFIED.,.F.,.F.,
  (2,2),(-10.8,10.8),.PIECEWISE_BEZIER_KNOTS.);
#199 = CARTESIAN_POINT('',(-2.53229654174E-16,-10.8));
#200 = CARTESIAN_POINT('',(-2.53229654174E-16,10.8));
#201 = ( GEOMETRIC_REPRESENTATION_CONTEXT(2) 
PARAMETRIC_REPRESENTATION_CONTEXT() REPRESENTATION_CONTEXT('2D SPACE',''
  ) );
#202 = PCURVE('',#203,#208);
#203 = PLANE('',#204);
#204 = AXIS2_PLACEMENT_3D('',#205,#206,#207);
#205 = CARTESIAN_POINT('',(0.,2.53229654174E-16,-4.40872847693E-16));
#206 = DIRECTION('',(1.,0.,0.));
#207 = DIRECTION('',(-0.,0.,1.));
#208 = DEFINITIONAL_REPRESENTATION('',(#209),#212);
#209 = B_SPLINE_CURVE_WITH_KNOTS('',1,(#210,#211),.UNSPECIFIED.,.F.,.F.,
  (2,2),(-10.8,10.8),.PIECEWISE_BEZIER_KNOTS.);
#210 = CARTESIAN_POINT('',(4.40872847693E-16,10.8));
#211 = CARTESIAN_POINT('',(4.40872847693E-16,-10.8));
#212 = ( GEOMETRIC_REPRESENTATION_CONTEXT(2) 
PARAMETRIC_REPRESENTATION_CONTEXT() REPRESENTATION_CONTEXT('2D SPACE',''
  ) );
#213 = ADVANCED_FACE('',(#214),#160,.T.);
#214 = FACE_BOUND('',#215,.T.);
#215 = EDGE_LOOP('',(#216,#217,#240,#267,#268));
#216 = ORIENTED_EDGE('',*,*,#132,.T.);
#217 = ORIENTED_EDGE('',*,*,#218,.T.);
#218 = EDGE_CURVE('',#24,#219,#221,.T.);
#219 = VERTEX_POINT('',#220);
#220 = CARTESIAN_POINT('',(-40.,10.8,0.));
#221 = SEAM_CURVE('',#222,(#226,#233),.PCURVE_S1.);
#222 = LINE('',#223,#224);
#223 = CARTESIAN_POINT('',(0.,10.8,0.));
#224 = VECTOR('',#225,1.);
#225 = DIRECTION('',(-1.,-0.,-0.));
#226 = PCURVE('',#160,#227);
#227 = DEFINITIONAL_REPRESENTATION('',(#228),#232);
#228 = LINE('',#229,#230);
#229 = CARTESIAN_POINT('',(6.28318530718,0.));
#230 = VECTOR('',#231,1.);
#231 = DIRECTION('',(0.,-1.));
#232 = ( GEOMETRIC_REPRESENTATION_CONTEXT(2) 
PARAMETRIC_REPRESENTATION_CONTEXT() REPRESENTATION_CONTEXT('2D SPACE',''
  ) );
#233 = PCURVE('',#160,#234);
#234 = DEFINITIONAL_REPRESENTATION('',(#235),#239);
#235 = LINE('',#236,#237);
#236 = CARTESIAN_POINT('',(0.,0.));
#237 = VECTOR('',#238,1.);
#238 = DIRECTION('',(0.,-1.));
#239 = ( GEOMETRIC_REPRESENTATION_CONTEXT(2) 
PARAMETRIC_REPRESENTATION_CONTEXT() REPRESENTATION_CONTEXT('2D SPACE',''
  ) );
#240 = ORIENTED_EDGE('',*,*,#241,.T.);
#241 = EDGE_CURVE('',#219,#219,#242,.T.);
#242 = SURFACE_CURVE('',#243,(#248,#255),.PCURVE_S1.);
#243 = CIRCLE('',#244,10.8);
#244 = AXIS2_PLACEMENT_3D('',#245,#246,#247);
#245 = CARTESIAN_POINT('',(-40.,0.,0.));
#246 = DIRECTION('',(1.,0.,0.));
#247 = DIRECTION('',(0.,1.,0.));
#248 = PCURVE('',#160,#249);
#249 = DEFINITIONAL_REPRESENTATION('',(#250),#254);
#250 = LINE('',#251,#252);
#251 = CARTESIAN_POINT('',(0.,-40.));
#252 = VECTOR('',#253,1.);
#253 = DIRECTION('',(1.,0.));
#254 = ( GEOMETRIC_REPRESENTATION_CONTEXT(2) 
PARAMETRIC_REPRESENTATION_CONTEXT() REPRESENTATION_CONTEXT('2D SPACE',''
  ) );
#255 = PCURVE('',#256,#261);
#256 = PLANE('',#257);
#257 = AXIS2_PLACEMENT_3D('',#258,#259,#260);
#258 = CARTESIAN_POINT('',(-40.,2.53229654174E-16,-4.40872847693E-16));
#259 = DIRECTION('',(1.,0.,0.));
#260 = DIRECTION('',(-0.,0.,1.));
#261 = DEFINITIONAL_REPRESENTATION('',(#262),#266);
#262 = CIRCLE('',#263,10.8);
#263 = AXIS2_PLACEMENT_2D('',#264,#265);
#264 = CARTESIAN_POINT('',(4.40872847693E-16,2.53229654174E-16));
#265 = DIRECTION('',(0.,-1.));
#266 = ( GEOMETRIC_REPRESENTATION_CONTEXT(2) 
PARAMETRIC_REPRESENTATION_CONTEXT() REPRESENTATION_CONTEXT('2D SPACE',''
  ) );
#267 = ORIENTED_EDGE('',*,*,#218,.F.);
#268 = ORIENTED_EDGE('',*,*,#269,.F.);
#269 = EDGE_CURVE('',#109,#24,#270,.T.);
#270 = SURFACE_CURVE('',#271,(#276,#283),.PCURVE_S1.);
#271 = CIRCLE('',#272,10.8);
#272 = AXIS2_PLACEMENT_3D('',#273,#274,#275);
#273 = CARTESIAN_POINT('',(0.,0.,0.));
#274 = DIRECTION('',(1.,0.,0.));
#275 = DIRECTION('',(0.,1.,0.));
#276 = PCURVE('',#160,#277);
#277 = DEFINITIONAL_REPRESENTATION('',(#278),#282);
#278 = LINE('',#279,#280);
#279 = CARTESIAN_POINT('',(0.,0.));
#280 = VECTOR('',#281,1.);
#281 = DIRECTION('',(1.,0.));
#282 = ( GEOMETRIC_REPRESENTATION_CONTEXT(2) 
PARAMETRIC_REPRESENTATION_CONTEXT() REPRESENTATION_CONTEXT('2D SPACE',''
  ) );
#283 = PCURVE('',#203,#284);
#284 = DEFINITIONAL_REPRESENTATION('',(#285),#289);
#285 = CIRCLE('',#286,10.8);
#286 = AXIS2_PLACEMENT_2D('',#287,#288);
#287 = CARTESIAN_POINT('',(4.40872847693E-16,2.53229654174E-16));
#288 = DIRECTION('',(0.,-1.));
#289 = ( GEOMETRIC_REPRESENTATION_CONTEXT(2) 
PARAMETRIC_REPRESENTATION_CONTEXT() REPRESENTATION_CONTEXT('2D SPACE',''
  ) );
#290 = ADVANCED_FACE('',(#291,#294),#95,.T.);
#291 = FACE_BOUND('',#292,.T.);
#292 = EDGE_LOOP('',(#293));
#293 = ORIENTED_EDGE('',*,*,#80,.T.);
#294 = FACE_BOUND('',#295,.T.);
#295 = EDGE_LOOP('',(#296));
#296 = ORIENTED_EDGE('',*,*,#297,.T.);
#297 = EDGE_CURVE('',#298,#298,#300,.T.);
#298 = VERTEX_POINT('',#299);
#299 = CARTESIAN_POINT('',(-8.275,-2.026790452589E-15,40.));
#300 = SURFACE_CURVE('',#301,(#306,#317),.PCURVE_S1.);
#301 = CIRCLE('',#302,8.275);
#302 = AXIS2_PLACEMENT_3D('',#303,#304,#305);
#303 = CARTESIAN_POINT('',(0.,0.,40.));
#304 = DIRECTION('',(0.,0.,-1.));
#305 = DIRECTION('',(-1.,0.,0.));
#306 = PCURVE('',#95,#307);
#307 = DEFINITIONAL_REPRESENTATION('',(#308),#316);
#308 = ( BOUNDED_CURVE() B_SPLINE_CURVE(2,(#309,#310,#311,#312,#313,#314
,#315),.UNSPECIFIED.,.T.,.F.) B_SPLINE_CURVE_WITH_KNOTS((1,2,2,2,2,1),(
    -2.094395102393,0.,2.094395102393,4.188790204786,6.28318530718,
8.377580409573),.UNSPECIFIED.) CURVE() GEOMETRIC_REPRESENTATION_ITEM() 
RATIONAL_B_SPLINE_CURVE((1.,0.5,1.,0.5,1.,0.5,1.)) REPRESENTATION_ITEM(
  '') );
#309 = CARTESIAN_POINT('',(-8.275,4.40872847693E-16));
#310 = CARTESIAN_POINT('',(-8.275,14.332720432632));
#311 = CARTESIAN_POINT('',(4.1375,7.166360216316));
#312 = CARTESIAN_POINT('',(16.55,2.467663300282E-15));
#313 = CARTESIAN_POINT('',(4.1375,-7.166360216316));
#314 = CARTESIAN_POINT('',(-8.275,-14.33272043263));
#315 = CARTESIAN_POINT('',(-8.275,4.40872847693E-16));
#316 = ( GEOMETRIC_REPRESENTATION_CONTEXT(2) 
PARAMETRIC_REPRESENTATION_CONTEXT() REPRESENTATION_CONTEXT('2D SPACE',''
  ) );
#317 = PCURVE('',#318,#323);
#318 = CYLINDRICAL_SURFACE('',#319,8.275);
#319 = AXIS2_PLACEMENT_3D('',#320,#321,#322);
#320 = CARTESIAN_POINT('',(0.,0.,40.));
#321 = DIRECTION('',(0.,0.,-1.));
#322 = DIRECTION('',(-1.,0.,0.));
#323 = DEFINITIONAL_REPRESENTATION('',(#324),#328);
#324 = LINE('',#325,#326);
#325 = CARTESIAN_POINT('',(0.,0.));
#326 = VECTOR('',#327,1.);
#327 = DIRECTION('',(1.,0.));
#328 = ( GEOMETRIC_REPRESENTATION_CONTEXT(2) 
PARAMETRIC_REPRESENTATION_CONTEXT() REPRESENTATION_CONTEXT('2D SPACE',''
  ) );
#329 = ADVANCED_FACE('',(#330),#203,.T.);
#330 = FACE_BOUND('',#331,.T.);
#331 = EDGE_LOOP('',(#332,#333));
#332 = ORIENTED_EDGE('',*,*,#190,.F.);
#333 = ORIENTED_EDGE('',*,*,#269,.T.);
#334 = ADVANCED_FACE('',(#335,#338),#256,.F.);
#335 = FACE_BOUND('',#336,.F.);
#336 = EDGE_LOOP('',(#337));
#337 = ORIENTED_EDGE('',*,*,#241,.T.);
#338 = FACE_BOUND('',#339,.F.);
#339 = EDGE_LOOP('',(#340));
#340 = ORIENTED_EDGE('',*,*,#341,.F.);
#341 = EDGE_CURVE('',#342,#342,#344,.T.);
#342 = VERTEX_POINT('',#343);
#343 = CARTESIAN_POINT('',(-40.,8.275,-2.026790452589E-15));
#344 = SURFACE_CURVE('',#345,(#350,#357),.PCURVE_S1.);
#345 = CIRCLE('',#346,8.275);
#346 = AXIS2_PLACEMENT_3D('',#347,#348,#349);
#347 = CARTESIAN_POINT('',(-40.,0.,0.));
#348 = DIRECTION('',(1.,0.,0.));
#349 = DIRECTION('',(0.,1.,0.));
#350 = PCURVE('',#256,#351);
#351 = DEFINITIONAL_REPRESENTATION('',(#352),#356);
#352 = CIRCLE('',#353,8.275);
#353 = AXIS2_PLACEMENT_2D('',#354,#355);
#354 = CARTESIAN_POINT('',(4.40872847693E-16,2.53229654174E-16));
#355 = DIRECTION('',(0.,-1.));
#356 = ( GEOMETRIC_REPRESENTATION_CONTEXT(2) 
PARAMETRIC_REPRESENTATION_CONTEXT() REPRESENTATION_CONTEXT('2D SPACE',''
  ) );
#357 = PCURVE('',#358,#363);
#358 = CYLINDRICAL_SURFACE('',#359,8.275);
#359 = AXIS2_PLACEMENT_3D('',#360,#361,#362);
#360 = CARTESIAN_POINT('',(-40.,0.,0.));
#361 = DIRECTION('',(1.,0.,0.));
#362 = DIRECTION('',(0.,1.,0.));
#363 = DEFINITIONAL_REPRESENTATION('',(#364),#368);
#364 = LINE('',#365,#366);
#365 = CARTESIAN_POINT('',(0.,0.));
#366 = VECTOR('',#367,1.);
#367 = DIRECTION('',(1.,0.));
#368 = ( GEOMETRIC_REPRESENTATION_CONTEXT(2) 
PARAMETRIC_REPRESENTATION_CONTEXT() REPRESENTATION_CONTEXT('2D SPACE',''
  ) );
#369 = ADVANCED_FACE('',(#370),#318,.F.);
#370 = FACE_BOUND('',#371,.F.);
#371 = EDGE_LOOP('',(#372,#403,#429,#544,#565,#566,#567,#677));
#372 = ORIENTED_EDGE('',*,*,#373,.F.);
#373 = EDGE_CURVE('',#374,#376,#378,.T.);
#374 = VERTEX_POINT('',#375);
#375 = CARTESIAN_POINT('',(-5.066976131472E-16,8.275,6.));
#376 = VERTEX_POINT('',#377);
#377 = CARTESIAN_POINT('',(1.520092839442E-15,-8.275,6.));
#378 = SURFACE_CURVE('',#379,(#384,#391),.PCURVE_S1.);
#379 = CIRCLE('',#380,8.275);
#380 = AXIS2_PLACEMENT_3D('',#381,#382,#383);
#381 = CARTESIAN_POINT('',(0.,0.,6.));
#382 = DIRECTION('',(0.,0.,-1.));
#383 = DIRECTION('',(-1.,0.,0.));
#384 = PCURVE('',#318,#385);
#385 = DEFINITIONAL_REPRESENTATION('',(#386),#390);
#386 = LINE('',#387,#388);
#387 = CARTESIAN_POINT('',(0.,34.));
#388 = VECTOR('',#389,1.);
#389 = DIRECTION('',(1.,0.));
#390 = ( GEOMETRIC_REPRESENTATION_CONTEXT(2) 
PARAMETRIC_REPRESENTATION_CONTEXT() REPRESENTATION_CONTEXT('2D SPACE',''
  ) );
#391 = PCURVE('',#392,#397);
#392 = PLANE('',#393);
#393 = AXIS2_PLACEMENT_3D('',#394,#395,#396);
#394 = CARTESIAN_POINT('',(0.,0.,6.));
#395 = DIRECTION('',(0.,0.,-1.));
#396 = DIRECTION('',(-1.,0.,0.));
#397 = DEFINITIONAL_REPRESENTATION('',(#398),#402);
#398 = CIRCLE('',#399,8.275);
#399 = AXIS2_PLACEMENT_2D('',#400,#401);
#400 = CARTESIAN_POINT('',(0.,0.));
#401 = DIRECTION('',(1.,0.));
#402 = ( GEOMETRIC_REPRESENTATION_CONTEXT(2) 
PARAMETRIC_REPRESENTATION_CONTEXT() REPRESENTATION_CONTEXT('2D SPACE',''
  ) );
#403 = ORIENTED_EDGE('',*,*,#404,.F.);
#404 = EDGE_CURVE('',#405,#374,#407,.T.);
#405 = VERTEX_POINT('',#406);
#406 = CARTESIAN_POINT('',(0.,8.275,6.94005583551));
#407 = SURFACE_CURVE('',#408,(#412,#418),.PCURVE_S1.);
#408 = LINE('',#409,#410);
#409 = CARTESIAN_POINT('',(0.,8.275,40.));
#410 = VECTOR('',#411,1.);
#411 = DIRECTION('',(0.,0.,-1.));
#412 = PCURVE('',#318,#413);
#413 = DEFINITIONAL_REPRESENTATION('',(#414),#417);
#414 = B_SPLINE_CURVE_WITH_KNOTS('',1,(#415,#416),.UNSPECIFIED.,.F.,.F.,
  (2,2),(27.04,34.0000006),.PIECEWISE_BEZIER_KNOTS.);
#415 = CARTESIAN_POINT('',(1.570796326795,27.04));
#416 = CARTESIAN_POINT('',(1.570796326795,34.0000006));
#417 = ( GEOMETRIC_REPRESENTATION_CONTEXT(2) 
PARAMETRIC_REPRESENTATION_CONTEXT() REPRESENTATION_CONTEXT('2D SPACE',''
  ) );
#418 = PCURVE('',#419,#424);
#419 = PLANE('',#420);
#420 = AXIS2_PLACEMENT_3D('',#421,#422,#423);
#421 = CARTESIAN_POINT('',(0.,2.53229654174E-16,-4.40872847693E-16));
#422 = DIRECTION('',(1.,0.,0.));
#423 = DIRECTION('',(-0.,0.,1.));
#424 = DEFINITIONAL_REPRESENTATION('',(#425),#428);
#425 = B_SPLINE_CURVE_WITH_KNOTS('',1,(#426,#427),.UNSPECIFIED.,.F.,.F.,
  (2,2),(27.04,34.0000006),.PIECEWISE_BEZIER_KNOTS.);
#426 = CARTESIAN_POINT('',(12.96,-8.275));
#427 = CARTESIAN_POINT('',(5.9999994,-8.275));
#428 = ( GEOMETRIC_REPRESENTATION_CONTEXT(2) 
PARAMETRIC_REPRESENTATION_CONTEXT() REPRESENTATION_CONTEXT('2D SPACE',''
  ) );
#429 = ORIENTED_EDGE('',*,*,#430,.F.);
#430 = EDGE_CURVE('',#431,#405,#433,.T.);
#431 = VERTEX_POINT('',#432);
#432 = CARTESIAN_POINT('',(-8.275,-2.026790452589E-15,10.8));
#433 = SURFACE_CURVE('',#434,(#467,#503),.PCURVE_S1.);
#434 = B_SPLINE_CURVE_WITH_KNOTS('',6,(#435,#436,#437,#438,#439,#440,
    #441,#442,#443,#444,#445,#446,#447,#448,#449,#450,#451,#452,#453,
    #454,#455,#456,#457,#458,#459,#460,#461,#462,#463,#464,#465,#466),
  .UNSPECIFIED.,.F.,.F.,(7,5,5,5,5,5,7),(0.,0.123397627559,
    0.202052970852,0.300515434139,0.569462683073,0.811736029629,1.),
  .UNSPECIFIED.);
#435 = CARTESIAN_POINT('',(-8.275,-6.827405905246E-16,10.8));
#436 = CARTESIAN_POINT('',(-8.275,0.346044519203,10.8));
#437 = CARTESIAN_POINT('',(-8.257634837563,0.691312245672,
    10.786694736219));
#438 = CARTESIAN_POINT('',(-8.223051124005,1.03313837386,10.760196622749
    ));
#439 = CARTESIAN_POINT('',(-8.17201131018,1.368876974182,10.721176064217
    ));
#440 = CARTESIAN_POINT('',(-8.105890945467,1.695943160986,
    10.670855686511));
#441 = CARTESIAN_POINT('',(-7.976240370468,2.213212340645,
    10.572780891813));
#442 = CARTESIAN_POINT('',(-7.920396580218,2.410309043983,
    10.530660824318));
#443 = CARTESIAN_POINT('',(-7.859550340864,2.602974545398,
    10.484931045174));
#444 = CARTESIAN_POINT('',(-7.794076144759,2.791061151668,
    10.435930914453));
#445 = CARTESIAN_POINT('',(-7.724353549412,2.974438388158,10.38400541748
    ));
#446 = CARTESIAN_POINT('',(-7.558653390745,3.376511461424,
    10.261276032118));
#447 = CARTESIAN_POINT('',(-7.460459269587,3.592537008769,
    10.188991349031));
#448 = CARTESIAN_POINT('',(-7.356792985615,3.801186313887,
    10.113222158683));
#449 = CARTESIAN_POINT('',(-7.248193660276,4.002600948906,
    10.034492339588));
#450 = CARTESIAN_POINT('',(-7.135132941445,4.196946924584,9.953276616836
    ));
#451 = CARTESIAN_POINT('',(-6.698111421216,4.896475633823,9.642534624361
    ));
#452 = CARTESIAN_POINT('',(-6.347350964525,5.358153110612,9.399280346264
    ));
#453 = CARTESIAN_POINT('',(-5.97341076611,5.773509671583,9.148556204792)
  );
#454 = CARTESIAN_POINT('',(-5.580405964202,6.147018289001,8.896238945849
    ));
#455 = CARTESIAN_POINT('',(-5.169800514849,6.482486512309,8.646721051555
    ));
#456 = CARTESIAN_POINT('',(-4.354530779682,7.052368752729,8.186851143495
    ));
#457 = CARTESIAN_POINT('',(-3.953558797317,7.29333461607,7.975205886896)
  );
#458 = CARTESIAN_POINT('',(-3.538755553264,7.506125187884,7.774050166112
    ));
#459 = CARTESIAN_POINT('',(-3.110491032015,7.690829888414,7.588073222952
    ));
#460 = CARTESIAN_POINT('',(-2.668923824299,7.847019102454,7.422897452083
    ));
#461 = CARTESIAN_POINT('',(-1.859891870285,8.071631047359,7.177045100005
    ));
#462 = CARTESIAN_POINT('',(-1.496924407207,8.152114039351,7.085458551006
    ));
#463 = CARTESIAN_POINT('',(-1.12758999429,8.213226086809,7.013713061771)
  );
#464 = CARTESIAN_POINT('',(-0.753958690785,8.254321355717,6.964711844218
    ));
#465 = CARTESIAN_POINT('',(-0.377622112933,8.27500002738,6.940055802863)
  );
#466 = CARTESIAN_POINT('',(5.999999981299E-07,8.275,6.94005583551));
#467 = PCURVE('',#318,#468);
#468 = DEFINITIONAL_REPRESENTATION('',(#469),#502);
#469 = B_SPLINE_CURVE_WITH_KNOTS('',6,(#470,#471,#472,#473,#474,#475,
    #476,#477,#478,#479,#480,#481,#482,#483,#484,#485,#486,#487,#488,
    #489,#490,#491,#492,#493,#494,#495,#496,#497,#498,#499,#500,#501),
  .UNSPECIFIED.,.F.,.F.,(7,5,5,5,5,5,7),(0.,0.123397627559,
    0.202052970852,0.300515434139,0.569462683073,0.811736029629,1.),
  .UNSPECIFIED.);
#470 = CARTESIAN_POINT('',(0.,29.2));
#471 = CARTESIAN_POINT('',(4.181806878581E-02,29.2));
#472 = CARTESIAN_POINT('',(8.35422658406E-02,29.213305263781));
#473 = CARTESIAN_POINT('',(0.124982191656,29.239803377251));
#474 = CARTESIAN_POINT('',(0.165946767571,29.278823935783));
#475 = CARTESIAN_POINT('',(0.206228107455,29.329144313489));
#476 = CARTESIAN_POINT('',(0.27067158739,29.427219108187));
#477 = CARTESIAN_POINT('',(0.295415979432,29.469339175682));
#478 = CARTESIAN_POINT('',(0.319816329523,29.515068954826));
#479 = CARTESIAN_POINT('',(0.343868888216,29.564069085547));
#480 = CARTESIAN_POINT('',(0.367568000137,29.61599458252));
#481 = CARTESIAN_POINT('',(0.420121291669,29.738723967882));
#482 = CARTESIAN_POINT('',(0.44877919014,29.811008650969));
#483 = CARTESIAN_POINT('',(0.476909756777,29.886777841317));
#484 = CARTESIAN_POINT('',(0.504540414756,29.965507660412));
#485 = CARTESIAN_POINT('',(0.531697922514,30.046723383164));
#486 = CARTESIAN_POINT('',(0.631374069495,30.357465375639));
#487 = CARTESIAN_POINT('',(0.701150080868,30.600719653736));
#488 = CARTESIAN_POINT('',(0.768360552942,30.851443795208));
#489 = CARTESIAN_POINT('',(0.833600417121,31.103761054151));
#490 = CARTESIAN_POINT('',(0.897495884232,31.353278948445));
#491 = CARTESIAN_POINT('',(1.017701469242,31.813148856505));
#492 = CARTESIAN_POINT('',(1.074099858797,32.024794113103));
#493 = CARTESIAN_POINT('',(1.130249356891,32.225949833888));
#494 = CARTESIAN_POINT('',(1.186422636548,32.411926777048));
#495 = CARTESIAN_POINT('',(1.242888824278,32.577102547917));
#496 = CARTESIAN_POINT('',(1.344355022923,32.822954899995));
#497 = CARTESIAN_POINT('',(1.389221318799,32.914541448994));
#498 = CARTESIAN_POINT('',(1.434360357986,32.986286938229));
#499 = CARTESIAN_POINT('',(1.479683561796,33.035288155782));
#500 = CARTESIAN_POINT('',(1.525162234598,33.059944197137));
#501 = CARTESIAN_POINT('',(1.570796399302,33.05994416449));
#502 = ( GEOMETRIC_REPRESENTATION_CONTEXT(2) 
PARAMETRIC_REPRESENTATION_CONTEXT() REPRESENTATION_CONTEXT('2D SPACE',''
  ) );
#503 = PCURVE('',#504,#509);
#504 = CYLINDRICAL_SURFACE('',#505,10.8);
#505 = AXIS2_PLACEMENT_3D('',#506,#507,#508);
#506 = CARTESIAN_POINT('',(0.,0.,0.));
#507 = DIRECTION('',(1.,0.,0.));
#508 = DIRECTION('',(0.,1.,0.));
#509 = DEFINITIONAL_REPRESENTATION('',(#510),#543);
#510 = B_SPLINE_CURVE_WITH_KNOTS('',6,(#511,#512,#513,#514,#515,#516,
    #517,#518,#519,#520,#521,#522,#523,#524,#525,#526,#527,#528,#529,
    #530,#531,#532,#533,#534,#535,#536,#537,#538,#539,#540,#541,#542),
  .UNSPECIFIED.,.F.,.F.,(7,5,5,5,5,5,7),(0.,0.123397627559,
    0.202052970852,0.300515434139,0.569462683073,0.811736029629,1.),
  .UNSPECIFIED.);
#511 = CARTESIAN_POINT('',(1.570796326795,-8.275));
#512 = CARTESIAN_POINT('',(1.538755167609,-8.275));
#513 = CARTESIAN_POINT('',(1.506785927421,-8.257634837563));
#514 = CARTESIAN_POINT('',(1.475076179113,-8.223051124005));
#515 = CARTESIAN_POINT('',(1.443812895355,-8.17201131018));
#516 = CARTESIAN_POINT('',(1.413191121746,-8.105890945467));
#517 = CARTESIAN_POINT('',(1.364442544547,-7.976240370468));
#518 = CARTESIAN_POINT('',(1.345785786469,-7.920396580218));
#519 = CARTESIAN_POINT('',(1.32745757681,-7.859550340864));
#520 = CARTESIAN_POINT('',(1.30946698711,-7.794076144759));
#521 = CARTESIAN_POINT('',(1.291823669483,-7.724353549412));
#522 = CARTESIAN_POINT('',(1.252898944121,-7.558653390745));
#523 = CARTESIAN_POINT('',(1.231813980623,-7.460459269587));
#524 = CARTESIAN_POINT('',(1.211269833952,-7.356792985615));
#525 = CARTESIAN_POINT('',(1.191254516579,-7.248193660276));
#526 = CARTESIAN_POINT('',(1.171756250223,-7.135132941445));
#527 = CARTESIAN_POINT('',(1.100882018448,-6.698111421216));
#528 = CARTESIAN_POINT('',(1.052671386168,-6.347350964525));
#529 = CARTESIAN_POINT('',(1.007848447838,-5.97341076611));
#530 = CARTESIAN_POINT('',(0.966181238311,-5.580405964202));
#531 = CARTESIAN_POINT('',(0.927499421546,-5.169800514849));
#532 = CARTESIAN_POINT('',(0.85969495274,-4.354530779682));
#533 = CARTESIAN_POINT('',(0.830024889003,-3.953558797317));
#534 = CARTESIAN_POINT('',(0.802935713605,-3.538755553264));
#535 = CARTESIAN_POINT('',(0.778677922684,-3.110491032015));
#536 = CARTESIAN_POINT('',(0.757632061794,-2.668923824299));
#537 = CARTESIAN_POINT('',(0.726798046562,-1.859891870285));
#538 = CARTESIAN_POINT('',(0.715510879418,-1.496924407207));
#539 = CARTESIAN_POINT('',(0.706785157229,-1.12758999429));
#540 = CARTESIAN_POINT('',(0.700863454871,-0.753958690785));
#541 = CARTESIAN_POINT('',(0.697883894773,-0.377622112933));
#542 = CARTESIAN_POINT('',(0.697883898719,5.999999999062E-07));
#543 = ( GEOMETRIC_REPRESENTATION_CONTEXT(2) 
PARAMETRIC_REPRESENTATION_CONTEXT() REPRESENTATION_CONTEXT('2D SPACE',''
  ) );
#544 = ORIENTED_EDGE('',*,*,#545,.F.);
#545 = EDGE_CURVE('',#298,#431,#546,.T.);
#546 = SEAM_CURVE('',#547,(#551,#558),.PCURVE_S1.);
#547 = LINE('',#548,#549);
#548 = CARTESIAN_POINT('',(-8.275,-2.026790452589E-15,40.));
#549 = VECTOR('',#550,1.);
#550 = DIRECTION('',(0.,0.,-1.));
#551 = PCURVE('',#318,#552);
#552 = DEFINITIONAL_REPRESENTATION('',(#553),#557);
#553 = LINE('',#554,#555);
#554 = CARTESIAN_POINT('',(6.28318530718,-0.));
#555 = VECTOR('',#556,1.);
#556 = DIRECTION('',(0.,1.));
#557 = ( GEOMETRIC_REPRESENTATION_CONTEXT(2) 
PARAMETRIC_REPRESENTATION_CONTEXT() REPRESENTATION_CONTEXT('2D SPACE',''
  ) );
#558 = PCURVE('',#318,#559);
#559 = DEFINITIONAL_REPRESENTATION('',(#560),#564);
#560 = LINE('',#561,#562);
#561 = CARTESIAN_POINT('',(0.,-0.));
#562 = VECTOR('',#563,1.);
#563 = DIRECTION('',(0.,1.));
#564 = ( GEOMETRIC_REPRESENTATION_CONTEXT(2) 
PARAMETRIC_REPRESENTATION_CONTEXT() REPRESENTATION_CONTEXT('2D SPACE',''
  ) );
#565 = ORIENTED_EDGE('',*,*,#297,.T.);
#566 = ORIENTED_EDGE('',*,*,#545,.T.);
#567 = ORIENTED_EDGE('',*,*,#568,.F.);
#568 = EDGE_CURVE('',#569,#431,#571,.T.);
#569 = VERTEX_POINT('',#570);
#570 = CARTESIAN_POINT('',(0.,-8.275,6.94005583551));
#571 = SURFACE_CURVE('',#572,(#605,#641),.PCURVE_S1.);
#572 = B_SPLINE_CURVE_WITH_KNOTS('',6,(#573,#574,#575,#576,#577,#578,
    #579,#580,#581,#582,#583,#584,#585,#586,#587,#588,#589,#590,#591,
    #592,#593,#594,#595,#596,#597,#598,#599,#600,#601,#602,#603,#604),
  .UNSPECIFIED.,.F.,.F.,(7,5,5,5,5,5,7),(0.,0.190017586259,
    0.431906235374,0.699878443411,0.799648679089,0.875467750724,1.),
  .UNSPECIFIED.);
#573 = CARTESIAN_POINT('',(6.000000052353E-07,-8.275,6.94005583551));
#574 = CARTESIAN_POINT('',(-0.381161877673,-8.275000027637,
    6.940055802557));
#575 = CARTESIAN_POINT('',(-0.760983589838,-8.253931878166,6.96517622273
    ));
#576 = CARTESIAN_POINT('',(-1.138024397924,-8.212071310245,
    7.015090023639));
#577 = CARTESIAN_POINT('',(-1.510663163689,-8.149830145177,
    7.088139087804));
#578 = CARTESIAN_POINT('',(-1.876781255721,-8.067871024775,
    7.181322607771));
#579 = CARTESIAN_POINT('',(-2.687534425649,-7.840609361016,
    7.429696745512));
#580 = CARTESIAN_POINT('',(-3.127930165594,-7.683672867772,
    7.595362520791));
#581 = CARTESIAN_POINT('',(-3.555049998127,-7.49833569057,7.78159849823)
  );
#582 = CARTESIAN_POINT('',(-3.968741848868,-7.285012341296,
    7.982829338697));
#583 = CARTESIAN_POINT('',(-4.368647019852,-7.043592904853,
    8.194411614428));
#584 = CARTESIAN_POINT('',(-5.180903901141,-6.473476103345,
    8.653444259719));
#585 = CARTESIAN_POINT('',(-5.589634449244,-6.138395795902,
    8.902125158239));
#586 = CARTESIAN_POINT('',(-5.980865417446,-5.765496086069,
    9.153506714082));
#587 = CARTESIAN_POINT('',(-6.353126659043,-5.350995415442,
    9.403235898536));
#588 = CARTESIAN_POINT('',(-6.70232447321,-4.890462850152,9.645485311599
    ));
#589 = CARTESIAN_POINT('',(-7.139439038552,-4.189777652724,
    9.956355469359));
#590 = CARTESIAN_POINT('',(-7.25386007997,-3.99260926802,10.038575028145
    ));
#591 = CARTESIAN_POINT('',(-7.36368776088,-3.788175941051,
    10.118229094843));
#592 = CARTESIAN_POINT('',(-7.468428407851,-3.576307521634,
    10.194821572841));
#593 = CARTESIAN_POINT('',(-7.567517642318,-3.356859926413,
    10.267804825913));
#594 = CARTESIAN_POINT('',(-7.730844209838,-2.957100350727,
    10.388844263904));
#595 = CARTESIAN_POINT('',(-7.79774998578,-2.780009752884,
    10.438687653594));
#596 = CARTESIAN_POINT('',(-7.860691338656,-2.598547158499,
    10.485797325893));
#597 = CARTESIAN_POINT('',(-7.919327857034,-2.412830731978,
    10.529864041977));
#598 = CARTESIAN_POINT('',(-7.973323671572,-2.222993517683,
    10.570583555035));
#599 = CARTESIAN_POINT('',(-8.102865482407,-1.710851919644,
    10.668553270175));
#600 = CARTESIAN_POINT('',(-8.170144463561,-1.381105183699,
    10.71974888445));
#601 = CARTESIAN_POINT('',(-8.222100647875,-1.042479957017,
    10.759468366961));
#602 = CARTESIAN_POINT('',(-8.257315271761,-0.697615208081,
    10.786449883271));
#603 = CARTESIAN_POINT('',(-8.275,-0.349214070818,10.8));
#604 = CARTESIAN_POINT('',(-8.275,0.,10.8));
#605 = PCURVE('',#318,#606);
#606 = DEFINITIONAL_REPRESENTATION('',(#607),#640);
#607 = B_SPLINE_CURVE_WITH_KNOTS('',6,(#608,#609,#610,#611,#612,#613,
    #614,#615,#616,#617,#618,#619,#620,#621,#622,#623,#624,#625,#626,
    #627,#628,#629,#630,#631,#632,#633,#634,#635,#636,#637,#638,#639),
  .UNSPECIFIED.,.F.,.F.,(7,5,5,5,5,5,7),(0.,0.190017586259,
    0.431906235374,0.699878443411,0.799648679089,0.875467750724,1.),
  .UNSPECIFIED.);
#608 = CARTESIAN_POINT('',(4.712388907877,33.05994416449));
#609 = CARTESIAN_POINT('',(4.758450838714,33.059944197443));
#610 = CARTESIAN_POINT('',(4.804350672055,33.03482377727));
#611 = CARTESIAN_POINT('',(4.850090774084,32.984909976361));
#612 = CARTESIAN_POINT('',(4.895643289428,32.911860912196));
#613 = CARTESIAN_POINT('',(4.940918329201,32.818677392229));
#614 = CARTESIAN_POINT('',(5.04267092275,32.570303254488));
#615 = CARTESIAN_POINT('',(5.099034718892,32.404637479209));
#616 = CARTESIAN_POINT('',(5.155112359398,32.218401501769));
#617 = CARTESIAN_POINT('',(5.211172772792,32.017170661303));
#618 = CARTESIAN_POINT('',(5.267489496076,31.805588385572));
#619 = CARTESIAN_POINT('',(5.387413131265,31.346555740281));
#620 = CARTESIAN_POINT('',(5.451105368584,31.097874841761));
#621 = CARTESIAN_POINT('',(5.516141810971,30.846493285918));
#622 = CARTESIAN_POINT('',(5.583142702175,30.596764101464));
#623 = CARTESIAN_POINT('',(5.652697224995,30.354514688401));
#624 = CARTESIAN_POINT('',(5.752497877998,30.043644530641));
#625 = CARTESIAN_POINT('',(5.780032325695,29.961424971855));
#626 = CARTESIAN_POINT('',(5.808053621055,29.881770905157));
#627 = CARTESIAN_POINT('',(5.836589317772,29.805178427159));
#628 = CARTESIAN_POINT('',(5.865667704123,29.732195174087));
#629 = CARTESIAN_POINT('',(5.917853457099,29.611155736096));
#630 = CARTESIAN_POINT('',(5.940722421123,29.561312346406));
#631 = CARTESIAN_POINT('',(5.963919883502,29.514202674107));
#632 = CARTESIAN_POINT('',(5.987440709836,29.470135958023));
#633 = CARTESIAN_POINT('',(6.011281418319,29.429416444965));
#634 = CARTESIAN_POINT('',(6.075120796676,29.331446729825));
#635 = CARTESIAN_POINT('',(6.115746404496,29.28025111555));
#636 = CARTESIAN_POINT('',(6.157070572916,29.240531633039));
#637 = CARTESIAN_POINT('',(6.19888135406,29.213550116729));
#638 = CARTESIAN_POINT('',(6.240984211008,29.2));
#639 = CARTESIAN_POINT('',(6.28318530718,29.2));
#640 = ( GEOMETRIC_REPRESENTATION_CONTEXT(2) 
PARAMETRIC_REPRESENTATION_CONTEXT() REPRESENTATION_CONTEXT('2D SPACE',''
  ) );
#641 = PCURVE('',#504,#642);
#642 = DEFINITIONAL_REPRESENTATION('',(#643),#676);
#643 = B_SPLINE_CURVE_WITH_KNOTS('',6,(#644,#645,#646,#647,#648,#649,
    #650,#651,#652,#653,#654,#655,#656,#657,#658,#659,#660,#661,#662,
    #663,#664,#665,#666,#667,#668,#669,#670,#671,#672,#673,#674,#675),
  .UNSPECIFIED.,.F.,.F.,(7,5,5,5,5,5,7),(0.,0.190017586259,
    0.431906235374,0.699878443411,0.799648679089,0.875467750724,1.),
  .UNSPECIFIED.);
#644 = CARTESIAN_POINT('',(2.443708754871,5.999999999062E-07));
#645 = CARTESIAN_POINT('',(2.443708758854,-0.381161877673));
#646 = CARTESIAN_POINT('',(2.440673081959,-0.760983589838));
#647 = CARTESIAN_POINT('',(2.434641090497,-1.138024397924));
#648 = CARTESIAN_POINT('',(2.425755731607,-1.510663163689));
#649 = CARTESIAN_POINT('',(2.414267378278,-1.876781255721));
#650 = CARTESIAN_POINT('',(2.383095483276,-2.687534425649));
#651 = CARTESIAN_POINT('',(2.361969172328,-3.127930165594));
#652 = CARTESIAN_POINT('',(2.337653220698,-3.555049998127));
#653 = CARTESIAN_POINT('',(2.310523481995,-3.968741848868));
#654 = CARTESIAN_POINT('',(2.280825733399,-4.368647019852));
#655 = CARTESIAN_POINT('',(2.213053006861,-5.180903901141));
#656 = CARTESIAN_POINT('',(2.174446127465,-5.589634449244));
#657 = CARTESIAN_POINT('',(2.132873679068,-5.980865417446));
#658 = CARTESIAN_POINT('',(2.08816543546,-6.353126659043));
#659 = CARTESIAN_POINT('',(2.040090928539,-6.70232447321));
#660 = CARTESIAN_POINT('',(1.96911401035,-7.139439038552));
#661 = CARTESIAN_POINT('',(1.949338973784,-7.25386007997));
#662 = CARTESIAN_POINT('',(1.929032523267,-7.36368776088));
#663 = CARTESIAN_POINT('',(1.90818260985,-7.468428407851));
#664 = CARTESIAN_POINT('',(1.886776960905,-7.567517642318));
#665 = CARTESIAN_POINT('',(1.848102700452,-7.730844209838));
#666 = CARTESIAN_POINT('',(1.831071606515,-7.79774998578));
#667 = CARTESIAN_POINT('',(1.813718040315,-7.860691338656));
#668 = CARTESIAN_POINT('',(1.796050716782,-7.919327857034));
#669 = CARTESIAN_POINT('',(1.778077846642,-7.973323671572));
#670 = CARTESIAN_POINT('',(1.729797483167,-8.102865482407));
#671 = CARTESIAN_POINT('',(1.698918482912,-8.170144463561));
#672 = CARTESIAN_POINT('',(1.667383076925,-8.222100647875));
#673 = CARTESIAN_POINT('',(1.635390333917,-8.257315271761));
#674 = CARTESIAN_POINT('',(1.603130962982,-8.275));
#675 = CARTESIAN_POINT('',(1.570796326795,-8.275));
#676 = ( GEOMETRIC_REPRESENTATION_CONTEXT(2) 
PARAMETRIC_REPRESENTATION_CONTEXT() REPRESENTATION_CONTEXT('2D SPACE',''
  ) );
#677 = ORIENTED_EDGE('',*,*,#678,.T.);
#678 = EDGE_CURVE('',#569,#376,#679,.T.);
#679 = SURFACE_CURVE('',#680,(#684,#690),.PCURVE_S1.);
#680 = LINE('',#681,#682);
#681 = CARTESIAN_POINT('',(0.,-8.275,40.));
#682 = VECTOR('',#683,1.);
#683 = DIRECTION('',(0.,0.,-1.));
#684 = PCURVE('',#318,#685);
#685 = DEFINITIONAL_REPRESENTATION('',(#686),#689);
#686 = B_SPLINE_CURVE_WITH_KNOTS('',1,(#687,#688),.UNSPECIFIED.,.F.,.F.,
  (2,2),(27.04,34.0000006),.PIECEWISE_BEZIER_KNOTS.);
#687 = CARTESIAN_POINT('',(4.712388980385,27.04));
#688 = CARTESIAN_POINT('',(4.712388980385,34.0000006));
#689 = ( GEOMETRIC_REPRESENTATION_CONTEXT(2) 
PARAMETRIC_REPRESENTATION_CONTEXT() REPRESENTATION_CONTEXT('2D SPACE',''
  ) );
#690 = PCURVE('',#419,#691);
#691 = DEFINITIONAL_REPRESENTATION('',(#692),#695);
#692 = B_SPLINE_CURVE_WITH_KNOTS('',1,(#693,#694),.UNSPECIFIED.,.F.,.F.,
  (2,2),(27.04,34.0000006),.PIECEWISE_BEZIER_KNOTS.);
#693 = CARTESIAN_POINT('',(12.96,8.275));
#694 = CARTESIAN_POINT('',(5.9999994,8.275));
#695 = ( GEOMETRIC_REPRESENTATION_CONTEXT(2) 
PARAMETRIC_REPRESENTATION_CONTEXT() REPRESENTATION_CONTEXT('2D SPACE',''
  ) );
#696 = ADVANCED_FACE('',(#697),#358,.F.);
#697 = FACE_BOUND('',#698,.F.);
#698 = EDGE_LOOP('',(#699,#729,#758,#779,#982,#1003,#1004));
#699 = ORIENTED_EDGE('',*,*,#700,.T.);
#700 = EDGE_CURVE('',#701,#703,#705,.T.);
#701 = VERTEX_POINT('',#702);
#702 = CARTESIAN_POINT('',(-6.94005583551,8.275,-1.013395226294E-15));
#703 = VERTEX_POINT('',#704);
#704 = CARTESIAN_POINT('',(-6.,8.275,-2.026790452589E-15));
#705 = SURFACE_CURVE('',#706,(#710,#717),.PCURVE_S1.);
#706 = LINE('',#707,#708);
#707 = CARTESIAN_POINT('',(-40.,8.275,-2.026790452589E-15));
#708 = VECTOR('',#709,1.);
#709 = DIRECTION('',(1.,0.,0.));
#710 = PCURVE('',#358,#711);
#711 = DEFINITIONAL_REPRESENTATION('',(#712),#716);
#712 = LINE('',#713,#714);
#713 = CARTESIAN_POINT('',(6.28318530718,-0.));
#714 = VECTOR('',#715,1.);
#715 = DIRECTION('',(0.,1.));
#716 = ( GEOMETRIC_REPRESENTATION_CONTEXT(2) 
PARAMETRIC_REPRESENTATION_CONTEXT() REPRESENTATION_CONTEXT('2D SPACE',''
  ) );
#717 = PCURVE('',#718,#723);
#718 = PLANE('',#719);
#719 = AXIS2_PLACEMENT_3D('',#720,#721,#722);
#720 = CARTESIAN_POINT('',(2.53229654174E-16,-4.40872847693E-16,0.));
#721 = DIRECTION('',(0.,0.,1.));
#722 = DIRECTION('',(1.,0.,-0.));
#723 = DEFINITIONAL_REPRESENTATION('',(#724),#728);
#724 = LINE('',#725,#726);
#725 = CARTESIAN_POINT('',(-40.,8.275));
#726 = VECTOR('',#727,1.);
#727 = DIRECTION('',(1.,0.));
#728 = ( GEOMETRIC_REPRESENTATION_CONTEXT(2) 
PARAMETRIC_REPRESENTATION_CONTEXT() REPRESENTATION_CONTEXT('2D SPACE',''
  ) );
#729 = ORIENTED_EDGE('',*,*,#730,.F.);
#730 = EDGE_CURVE('',#731,#703,#733,.T.);
#731 = VERTEX_POINT('',#732);
#732 = CARTESIAN_POINT('',(-6.,-8.275,1.013395226294E-15));
#733 = SURFACE_CURVE('',#734,(#739,#746),.PCURVE_S1.);
#734 = CIRCLE('',#735,8.275);
#735 = AXIS2_PLACEMENT_3D('',#736,#737,#738);
#736 = CARTESIAN_POINT('',(-6.,0.,0.));
#737 = DIRECTION('',(1.,0.,0.));
#738 = DIRECTION('',(0.,1.,0.));
#739 = PCURVE('',#358,#740);
#740 = DEFINITIONAL_REPRESENTATION('',(#741),#745);
#741 = LINE('',#742,#743);
#742 = CARTESIAN_POINT('',(0.,34.));
#743 = VECTOR('',#744,1.);
#744 = DIRECTION('',(1.,0.));
#745 = ( GEOMETRIC_REPRESENTATION_CONTEXT(2) 
PARAMETRIC_REPRESENTATION_CONTEXT() REPRESENTATION_CONTEXT('2D SPACE',''
  ) );
#746 = PCURVE('',#747,#752);
#747 = PLANE('',#748);
#748 = AXIS2_PLACEMENT_3D('',#749,#750,#751);
#749 = CARTESIAN_POINT('',(-6.,0.,0.));
#750 = DIRECTION('',(1.,0.,0.));
#751 = DIRECTION('',(0.,1.,0.));
#752 = DEFINITIONAL_REPRESENTATION('',(#753),#757);
#753 = CIRCLE('',#754,8.275);
#754 = AXIS2_PLACEMENT_2D('',#755,#756);
#755 = CARTESIAN_POINT('',(0.,0.));
#756 = DIRECTION('',(1.,0.));
#757 = ( GEOMETRIC_REPRESENTATION_CONTEXT(2) 
PARAMETRIC_REPRESENTATION_CONTEXT() REPRESENTATION_CONTEXT('2D SPACE',''
  ) );
#758 = ORIENTED_EDGE('',*,*,#759,.F.);
#759 = EDGE_CURVE('',#760,#731,#762,.T.);
#760 = VERTEX_POINT('',#761);
#761 = CARTESIAN_POINT('',(-6.94005583551,-8.275,0.));
#762 = SURFACE_CURVE('',#763,(#767,#773),.PCURVE_S1.);
#763 = LINE('',#764,#765);
#764 = CARTESIAN_POINT('',(-40.,-8.275,0.));
#765 = VECTOR('',#766,1.);
#766 = DIRECTION('',(1.,0.,0.));
#767 = PCURVE('',#358,#768);
#768 = DEFINITIONAL_REPRESENTATION('',(#769),#772);
#769 = B_SPLINE_CURVE_WITH_KNOTS('',1,(#770,#771),.UNSPECIFIED.,.F.,.F.,
  (2,2),(27.04,34.0000006),.PIECEWISE_BEZIER_KNOTS.);
#770 = CARTESIAN_POINT('',(3.14159265359,27.04));
#771 = CARTESIAN_POINT('',(3.14159265359,34.0000006));
#772 = ( GEOMETRIC_REPRESENTATION_CONTEXT(2) 
PARAMETRIC_REPRESENTATION_CONTEXT() REPRESENTATION_CONTEXT('2D SPACE',''
  ) );
#773 = PCURVE('',#718,#774);
#774 = DEFINITIONAL_REPRESENTATION('',(#775),#778);
#775 = B_SPLINE_CURVE_WITH_KNOTS('',1,(#776,#777),.UNSPECIFIED.,.F.,.F.,
  (2,2),(27.04,34.0000006),.PIECEWISE_BEZIER_KNOTS.);
#776 = CARTESIAN_POINT('',(-12.96,-8.275));
#777 = CARTESIAN_POINT('',(-5.9999994,-8.275));
#778 = ( GEOMETRIC_REPRESENTATION_CONTEXT(2) 
PARAMETRIC_REPRESENTATION_CONTEXT() REPRESENTATION_CONTEXT('2D SPACE',''
  ) );
#779 = ORIENTED_EDGE('',*,*,#780,.F.);
#780 = EDGE_CURVE('',#701,#760,#781,.T.);
#781 = SURFACE_CURVE('',#782,(#845,#911),.PCURVE_S1.);
#782 = B_SPLINE_CURVE_WITH_KNOTS('',7,(#783,#784,#785,#786,#787,#788,
    #789,#790,#791,#792,#793,#794,#795,#796,#797,#798,#799,#800,#801,
    #802,#803,#804,#805,#806,#807,#808,#809,#810,#811,#812,#813,#814,
    #815,#816,#817,#818,#819,#820,#821,#822,#823,#824,#825,#826,#827,
    #828,#829,#830,#831,#832,#833,#834,#835,#836,#837,#838,#839,#840,
    #841,#842,#843,#844),.UNSPECIFIED.,.F.,.F.,(8,6,6,6,6,6,6,6,6,6,8),(
    0.,9.522757115306E-02,0.216450429287,0.350745103844,0.400745107311,
    0.438741948943,0.5428318274,0.602024912703,0.785724229919,
    0.957975084383,1.),.UNSPECIFIED.);
#783 = CARTESIAN_POINT('',(-6.94005583551,8.275,-2.026790494706E-15));
#784 = CARTESIAN_POINT('',(-6.94005583551,8.275,0.326710608986));
#785 = CARTESIAN_POINT('',(-6.957999006768,8.259951310073,0.652463526932
    ));
#786 = CARTESIAN_POINT('',(-6.993698450169,8.230011506662,0.976435818379
    ));
#787 = CARTESIAN_POINT('',(-7.046396819381,8.185396478662,1.297726976545
    ));
#788 = CARTESIAN_POINT('',(-7.114762993785,8.1264132154,1.615268496769)
  );
#789 = CARTESIAN_POINT('',(-7.196932982791,8.053587573885,1.927737289815
    ));
#790 = CARTESIAN_POINT('',(-7.409825078119,7.858791882894,2.622668504111
    ));
#791 = CARTESIAN_POINT('',(-7.548029437409,7.728511870727,3.002102798843
    ));
#792 = CARTESIAN_POINT('',(-7.701783082707,7.577765905425,3.371998648103
    ));
#793 = CARTESIAN_POINT('',(-7.867840289761,7.406911395267,3.732346513171
    ));
#794 = CARTESIAN_POINT('',(-8.043281412001,7.216035365775,4.083000457652
    ));
#795 = CARTESIAN_POINT('',(-8.225522286013,7.004953568939,4.423697259384
    ));
#796 = CARTESIAN_POINT('',(-8.618978836514,6.516282028025,5.119917438736
    ));
#797 = CARTESIAN_POINT('',(-8.831073472948,6.234133026599,5.472854292643
    ));
#798 = CARTESIAN_POINT('',(-9.045771761578,5.925310247427,5.813195002502
    ));
#799 = CARTESIAN_POINT('',(-9.260533507419,5.587852941515,6.140405949558
    ));
#800 = CARTESIAN_POINT('',(-9.472450016555,5.219414682501,6.452897463091
    ));
#801 = CARTESIAN_POINT('',(-9.677846688431,4.817521986744,6.747827808975
    ));
#802 = CARTESIAN_POINT('',(-9.944306823654,4.216934674663,7.122497436411
    ));
#803 = CARTESIAN_POINT('',(-10.01508372563,4.048943092222,7.22116835385)
  );
#804 = CARTESIAN_POINT('',(-10.08409163768,3.875790224038,7.316618754775
    ));
#805 = CARTESIAN_POINT('',(-10.15105444255,3.697375189872,7.408576609582
    ));
#806 = CARTESIAN_POINT('',(-10.21567393086,3.513608208714,7.496739617699
    ));
#807 = CARTESIAN_POINT('',(-10.27762980853,3.324410743316,7.580775145118
    ));
#808 = CARTESIAN_POINT('',(-10.38137789824,2.981759678442,7.72076934585)
  );
#809 = CARTESIAN_POINT('',(-10.42444668511,2.830607066554,7.778634049796
    ));
#810 = CARTESIAN_POINT('',(-10.46560746633,2.676316841807,7.833716473137
    ));
#811 = CARTESIAN_POINT('',(-10.50468306135,2.518954404276,7.885821275103
    ));
#812 = CARTESIAN_POINT('',(-10.54149818856,2.358591527894,7.934755232616
    ));
#813 = CARTESIAN_POINT('',(-10.57587994626,2.195306366981,7.980326898126
    ));
#814 = CARTESIAN_POINT('',(-10.69471301115,1.574100562017,8.137455561731
    ));
#815 = CARTESIAN_POINT('',(-10.76285125388,1.09447867091,8.226727287114)
  );
#816 = CARTESIAN_POINT('',(-10.80677572626,0.598285061752,8.283853109855
    ));
#817 = CARTESIAN_POINT('',(-10.82327610969,9.378404124098E-02,
    8.305268261918));
#818 = CARTESIAN_POINT('',(-10.81144921328,-0.410576075242,
    8.289982356568));
#819 = CARTESIAN_POINT('',(-10.7727358193,-0.906355302758,8.239553407196
    ));
#820 = CARTESIAN_POINT('',(-10.67553834753,-1.657809723804,
    8.111944433144));
#821 = CARTESIAN_POINT('',(-10.63283751509,-1.924399869105,
    8.055754577892));
#822 = CARTESIAN_POINT('',(-10.58325830348,-2.184641248332,
    7.990305033884));
#823 = CARTESIAN_POINT('',(-10.52743668788,-2.438048966214,
    7.916304935974));
#824 = CARTESIAN_POINT('',(-10.46605256578,-2.684176192202,
    7.834506913831));
#825 = CARTESIAN_POINT('',(-10.39982428151,-2.922614293551,
    7.745711012197));
#826 = CARTESIAN_POINT('',(-10.11126915192,-3.867948187461,
    7.356125171639));
#827 = CARTESIAN_POINT('',(-9.852732102184,-4.508174759858,
    7.001093535498));
#828 = CARTESIAN_POINT('',(-9.570769430283,-5.077861303623,
    6.603505998201));
#829 = CARTESIAN_POINT('',(-9.277528149702,-5.583682978982,
    6.174656569506));
#830 = CARTESIAN_POINT('',(-8.981461829015,-6.032582010334,
    5.720823687942));
#831 = CARTESIAN_POINT('',(-8.688399253993,-6.430837846098,
    5.243688752518));
#832 = CARTESIAN_POINT('',(-8.138853457182,-7.111848680707,4.26943919112
    ));
#833 = CARTESIAN_POINT('',(-7.880534915547,-7.401115573759,
    3.774190982059));
#834 = CARTESIAN_POINT('',(-7.637977832321,-7.649483270572,
    3.257858415013));
#835 = CARTESIAN_POINT('',(-7.420182313111,-7.856140338883,
    2.722679945428));
#836 = CARTESIAN_POINT('',(-7.237028350821,-8.02018206453,2.170293964632
    ));
#837 = CARTESIAN_POINT('',(-7.098517598285,-8.140240256757,
    1.600856654614));
#838 = CARTESIAN_POINT('',(-6.99290965881,-8.230428687554,0.869792717442
    ));
#839 = CARTESIAN_POINT('',(-6.975447086061,-8.245236088581,0.72573173085
    ));
#840 = CARTESIAN_POINT('',(-6.961354095576,-8.257121335541,
    0.581131959188));
#841 = CARTESIAN_POINT('',(-6.95072170078,-8.266054885531,0.436130062992
    ));
#842 = CARTESIAN_POINT('',(-6.943611636108,-8.272017705647,
    0.290857419538));
#843 = CARTESIAN_POINT('',(-6.940055822936,-8.275000010546,
    0.145440192232));
#844 = CARTESIAN_POINT('',(-6.94005583551,-8.275,-5.999999994131E-07));
#845 = PCURVE('',#358,#846);
#846 = DEFINITIONAL_REPRESENTATION('',(#847),#910);
#847 = B_SPLINE_CURVE_WITH_KNOTS('',7,(#848,#849,#850,#851,#852,#853,
    #854,#855,#856,#857,#858,#859,#860,#861,#862,#863,#864,#865,#866,
    #867,#868,#869,#870,#871,#872,#873,#874,#875,#876,#877,#878,#879,
    #880,#881,#882,#883,#884,#885,#886,#887,#888,#889,#890,#891,#892,
    #893,#894,#895,#896,#897,#898,#899,#900,#901,#902,#903,#904,#905,
    #906,#907,#908,#909),.UNSPECIFIED.,.F.,.F.,(8,6,6,6,6,6,6,6,6,6,8),(
    0.,9.522757115306E-02,0.216450429287,0.350745103844,0.400745107311,
    0.438741948943,0.5428318274,0.602024912703,0.785724229919,
    0.957975084383,1.),.UNSPECIFIED.);
#848 = CARTESIAN_POINT('',(0.,33.05994416449));
#849 = CARTESIAN_POINT('',(3.948164459048E-02,33.05994416449));
#850 = CARTESIAN_POINT('',(7.88475052194E-02,33.042000993232));
#851 = CARTESIAN_POINT('',(0.118098934015,33.006301549831));
#852 = CARTESIAN_POINT('',(0.157224331008,32.953603180619));
#853 = CARTESIAN_POINT('',(0.196190055015,32.885237006215));
#854 = CARTESIAN_POINT('',(0.234924524091,32.803067017209));
#855 = CARTESIAN_POINT('',(0.322141023533,32.590174921881));
#856 = CARTESIAN_POINT('',(0.370541795117,32.451970562591));
#857 = CARTESIAN_POINT('',(0.418690105465,32.298216917293));
#858 = CARTESIAN_POINT('',(0.466749271449,32.132159710239));
#859 = CARTESIAN_POINT('',(0.514874283172,31.956718587999));
#860 = CARTESIAN_POINT('',(0.563228270586,31.774477713987));
#861 = CARTESIAN_POINT('',(0.66601995721,31.381021163486));
#862 = CARTESIAN_POINT('',(0.720518606108,31.168926527052));
#863 = CARTESIAN_POINT('',(0.775880069563,30.954228238422));
#864 = CARTESIAN_POINT('',(0.832467498245,30.739466492581));
#865 = CARTESIAN_POINT('',(0.890626442596,30.527549983446));
#866 = CARTESIAN_POINT('',(0.950697426264,30.322153311569));
#867 = CARTESIAN_POINT('',(1.036240843124,30.055693176346));
#868 = CARTESIAN_POINT('',(1.059776360254,29.984916274366));
#869 = CARTESIAN_POINT('',(1.083655514088,29.915908362314));
#870 = CARTESIAN_POINT('',(1.107894224978,29.848945557444));
#871 = CARTESIAN_POINT('',(1.132508447773,29.784326069139));
#872 = CARTESIAN_POINT('',(1.15751473247,29.722370191462));
#873 = CARTESIAN_POINT('',(1.202245377878,29.618622101755));
#874 = CARTESIAN_POINT('',(1.221799451017,29.575553314889));
#875 = CARTESIAN_POINT('',(1.241589133526,29.534392533664));
#876 = CARTESIAN_POINT('',(1.26161125726,29.495316938643));
#877 = CARTESIAN_POINT('',(1.281863360446,29.458501811435));
#878 = CARTESIAN_POINT('',(1.302343691447,29.424120053737));
#879 = CARTESIAN_POINT('',(1.379778120856,29.305286988841));
#880 = CARTESIAN_POINT('',(1.438614285294,29.237148746112));
#881 = CARTESIAN_POINT('',(1.49873735472,29.193224273735));
#882 = CARTESIAN_POINT('',(1.559471958728,29.176723890306));
#883 = CARTESIAN_POINT('',(1.620201482735,29.188550786719));
#884 = CARTESIAN_POINT('',(1.680289039052,29.227264180699));
#885 = CARTESIAN_POINT('',(1.772399303187,29.324461652466));
#886 = CARTESIAN_POINT('',(1.805297773393,29.367162484902));
#887 = CARTESIAN_POINT('',(1.837687954939,29.416741696517));
#888 = CARTESIAN_POINT('',(1.869550538678,29.472563312118));
#889 = CARTESIAN_POINT('',(1.900861335522,29.533947434214));
#890 = CARTESIAN_POINT('',(1.931590616049,29.600175718485));
#891 = CARTESIAN_POINT('',(2.055151259686,29.888730848077));
#892 = CARTESIAN_POINT('',(2.143031380593,30.147267897816));
#893 = CARTESIAN_POINT('',(2.226321569271,30.429230569717));
#894 = CARTESIAN_POINT('',(2.305870113352,30.722471850298));
#895 = CARTESIAN_POINT('',(2.382566143815,31.018538170985));
#896 = CARTESIAN_POINT('',(2.457397928496,31.311600746007));
#897 = CARTESIAN_POINT('',(2.601043931066,31.861146542818));
#898 = CARTESIAN_POINT('',(2.670123999941,32.119465084453));
#899 = CARTESIAN_POINT('',(2.739009646944,32.362022167679));
#900 = CARTESIAN_POINT('',(2.807939773134,32.579817686889));
#901 = CARTESIAN_POINT('',(2.877216382286,32.762971649179));
#902 = CARTESIAN_POINT('',(2.947289276766,32.901482401715));
#903 = CARTESIAN_POINT('',(3.036305110374,33.00709034119));
#904 = CARTESIAN_POINT('',(3.053802399527,33.024552913939));
#905 = CARTESIAN_POINT('',(3.071329769256,33.038645904424));
#906 = CARTESIAN_POINT('',(3.088879247983,33.04927829922));
#907 = CARTESIAN_POINT('',(3.106443718585,33.056388363892));
#908 = CARTESIAN_POINT('',(3.124016799544,33.059944177064));
#909 = CARTESIAN_POINT('',(3.141592726097,33.05994416449));
#910 = ( GEOMETRIC_REPRESENTATION_CONTEXT(2) 
PARAMETRIC_REPRESENTATION_CONTEXT() REPRESENTATION_CONTEXT('2D SPACE',''
  ) );
#911 = PCURVE('',#912,#917);
#912 = CYLINDRICAL_SURFACE('',#913,10.8);
#913 = AXIS2_PLACEMENT_3D('',#914,#915,#916);
#914 = CARTESIAN_POINT('',(0.,0.,0.));
#915 = DIRECTION('',(-0.,-0.,-1.));
#916 = DIRECTION('',(1.,0.,0.));
#917 = DEFINITIONAL_REPRESENTATION('',(#918),#981);
#918 = B_SPLINE_CURVE_WITH_KNOTS('',7,(#919,#920,#921,#922,#923,#924,
    #925,#926,#927,#928,#929,#930,#931,#932,#933,#934,#935,#936,#937,
    #938,#939,#940,#941,#942,#943,#944,#945,#946,#947,#948,#949,#950,
    #951,#952,#953,#954,#955,#956,#957,#958,#959,#960,#961,#962,#963,
    #964,#965,#966,#967,#968,#969,#970,#971,#972,#973,#974,#975,#976,
    #977,#978,#979,#980),.UNSPECIFIED.,.F.,.F.,(8,6,6,6,6,6,6,6,6,6,8),(
    0.,9.522757115306E-02,0.216450429287,0.350745103844,0.400745107311,
    0.438741948943,0.5428318274,0.602024912703,0.785724229919,
    0.957975084383,1.),.UNSPECIFIED.);
#919 = CARTESIAN_POINT('',(-2.268680225513,1.7763568394E-15));
#920 = CARTESIAN_POINT('',(-2.268680225513,-0.326710608986));
#921 = CARTESIAN_POINT('',(-2.270848567844,-0.652463526932));
#922 = CARTESIAN_POINT('',(-2.275162757422,-0.976435818379));
#923 = CARTESIAN_POINT('',(-2.281555907438,-1.297726976545));
#924 = CARTESIAN_POINT('',(-2.289915640779,-1.615268496769));
#925 = CARTESIAN_POINT('',(-2.300080763296,-1.927737289815));
#926 = CARTESIAN_POINT('',(-2.326799527587,-2.622668504111));
#927 = CARTESIAN_POINT('',(-2.344383718583,-3.002102798843));
#928 = CARTESIAN_POINT('',(-2.364314638041,-3.371998648103));
#929 = CARTESIAN_POINT('',(-2.386362790921,-3.732346513171));
#930 = CARTESIAN_POINT('',(-2.410350568641,-4.083000457652));
#931 = CARTESIAN_POINT('',(-2.436156504262,-4.423697259384));
#932 = CARTESIAN_POINT('',(-2.494247412338,-5.119917438736));
#933 = CARTESIAN_POINT('',(-2.52691231595,-5.472854292643));
#934 = CARTESIAN_POINT('',(-2.561698537718,-5.813195002502));
#935 = CARTESIAN_POINT('',(-2.598675977149,-6.140405949558));
#936 = CARTESIAN_POINT('',(-2.637959118331,-6.452897463091));
#937 = CARTESIAN_POINT('',(-2.679686701861,-6.747827808975));
#938 = CARTESIAN_POINT('',(-2.740524060309,-7.122497436411));
#939 = CARTESIAN_POINT('',(-2.757399996154,-7.22116835385));
#940 = CARTESIAN_POINT('',(-2.77465369261,-7.316618754775));
#941 = CARTESIAN_POINT('',(-2.792292134296,-7.408576609582));
#942 = CARTESIAN_POINT('',(-2.810322270233,-7.496739617699));
#943 = CARTESIAN_POINT('',(-2.82875127676,-7.580775145118));
#944 = CARTESIAN_POINT('',(-2.861900642864,-7.72076934585));
#945 = CARTESIAN_POINT('',(-2.876451347031,-7.778634049796));
#946 = CARTESIAN_POINT('',(-2.891233697413,-7.833716473137));
#947 = CARTESIAN_POINT('',(-2.906242650155,-7.885821275103));
#948 = CARTESIAN_POINT('',(-2.921473369357,-7.934755232616));
#949 = CARTESIAN_POINT('',(-2.936921243338,-7.980326898126));
#950 = CARTESIAN_POINT('',(-2.995483254648,-8.137455561731));
#951 = CARTESIAN_POINT('',(-3.040287387759,-8.226727287114));
#952 = CARTESIAN_POINT('',(-3.086305380917,-8.283853109855));
#953 = CARTESIAN_POINT('',(-3.132913081562,-8.305268261918));
#954 = CARTESIAN_POINT('',(-3.179513100438,-8.289982356568));
#955 = CARTESIAN_POINT('',(-3.225499371362,-8.239553407196));
#956 = CARTESIAN_POINT('',(-3.295658111092,-8.111944433144));
#957 = CARTESIAN_POINT('',(-3.32064561594,-8.055754577892));
#958 = CARTESIAN_POINT('',(-3.345158740197,-7.990305033884));
#959 = CARTESIAN_POINT('',(-3.369167967882,-7.916304935974));
#960 = CARTESIAN_POINT('',(-3.392642129555,-7.834506913831));
#961 = CARTESIAN_POINT('',(-3.415548216289,-7.745711012197));
#962 = CARTESIAN_POINT('',(-3.507066063771,-7.356125171639));
#963 = CARTESIAN_POINT('',(-3.570752570696,-7.001093535499));
#964 = CARTESIAN_POINT('',(-3.629366607436,-6.603505998201));
#965 = CARTESIAN_POINT('',(-3.683324777881,-6.174656569506));
#966 = CARTESIAN_POINT('',(-3.73300632629,-5.720823687942));
#967 = CARTESIAN_POINT('',(-3.778744411423,-5.243688752518));
#968 = CARTESIAN_POINT('',(-3.859770936934,-4.26943919112));
#969 = CARTESIAN_POINT('',(-3.895635373221,-3.774190982059));
#970 = CARTESIAN_POINT('',(-3.927734262404,-3.257858415014));
#971 = CARTESIAN_POINT('',(-3.955510373519,-2.722679945428));
#972 = CARTESIAN_POINT('',(-3.978272571633,-2.170293964632));
#973 = CARTESIAN_POINT('',(-3.99524433878,-1.600856654614));
#974 = CARTESIAN_POINT('',(-4.008103376533,-0.869792717442));
#975 = CARTESIAN_POINT('',(-4.010223311467,-0.72573173085));
#976 = CARTESIAN_POINT('',(-4.011930303553,-0.581131959188));
#977 = CARTESIAN_POINT('',(-4.013216160672,-0.436130062992));
#978 = CARTESIAN_POINT('',(-4.014075371324,-0.290857419538));
#979 = CARTESIAN_POINT('',(-4.014505083186,-0.145440192232));
#980 = CARTESIAN_POINT('',(-4.014505081666,5.999999999062E-07));
#981 = ( GEOMETRIC_REPRESENTATION_CONTEXT(2) 
PARAMETRIC_REPRESENTATION_CONTEXT() REPRESENTATION_CONTEXT('2D SPACE',''
  ) );
#982 = ORIENTED_EDGE('',*,*,#983,.F.);
#983 = EDGE_CURVE('',#342,#701,#984,.T.);
#984 = SEAM_CURVE('',#985,(#989,#996),.PCURVE_S1.);
#985 = LINE('',#986,#987);
#986 = CARTESIAN_POINT('',(-40.,8.275,-2.026790452589E-15));
#987 = VECTOR('',#988,1.);
#988 = DIRECTION('',(1.,0.,0.));
#989 = PCURVE('',#358,#990);
#990 = DEFINITIONAL_REPRESENTATION('',(#991),#995);
#991 = LINE('',#992,#993);
#992 = CARTESIAN_POINT('',(6.28318530718,-0.));
#993 = VECTOR('',#994,1.);
#994 = DIRECTION('',(0.,1.));
#995 = ( GEOMETRIC_REPRESENTATION_CONTEXT(2) 
PARAMETRIC_REPRESENTATION_CONTEXT() REPRESENTATION_CONTEXT('2D SPACE',''
  ) );
#996 = PCURVE('',#358,#997);
#997 = DEFINITIONAL_REPRESENTATION('',(#998),#1002);
#998 = LINE('',#999,#1000);
#999 = CARTESIAN_POINT('',(0.,-0.));
#1000 = VECTOR('',#1001,1.);
#1001 = DIRECTION('',(0.,1.));
#1002 = ( GEOMETRIC_REPRESENTATION_CONTEXT(2) 
PARAMETRIC_REPRESENTATION_CONTEXT() REPRESENTATION_CONTEXT('2D SPACE',''
  ) );
#1003 = ORIENTED_EDGE('',*,*,#341,.T.);
#1004 = ORIENTED_EDGE('',*,*,#983,.T.);
#1005 = ADVANCED_FACE('',(#1006),#392,.F.);
#1006 = FACE_BOUND('',#1007,.F.);
#1007 = EDGE_LOOP('',(#1008,#1027));
#1008 = ORIENTED_EDGE('',*,*,#1009,.F.);
#1009 = EDGE_CURVE('',#374,#376,#1010,.T.);
#1010 = SURFACE_CURVE('',#1011,(#1015,#1021),.PCURVE_S1.);
#1011 = LINE('',#1012,#1013);
#1012 = CARTESIAN_POINT('',(0.,1.26614827087E-16,6.));
#1013 = VECTOR('',#1014,1.);
#1014 = DIRECTION('',(0.,-1.,0.));
#1015 = PCURVE('',#392,#1016);
#1016 = DEFINITIONAL_REPRESENTATION('',(#1017),#1020);
#1017 = B_SPLINE_CURVE_WITH_KNOTS('',1,(#1018,#1019),.UNSPECIFIED.,.F.,
  .F.,(2,2),(-8.275,8.275),.PIECEWISE_BEZIER_KNOTS.);
#1018 = CARTESIAN_POINT('',(0.,8.275));
#1019 = CARTESIAN_POINT('',(0.,-8.275));
#1020 = ( GEOMETRIC_REPRESENTATION_CONTEXT(2) 
PARAMETRIC_REPRESENTATION_CONTEXT() REPRESENTATION_CONTEXT('2D SPACE',''
  ) );
#1021 = PCURVE('',#419,#1022);
#1022 = DEFINITIONAL_REPRESENTATION('',(#1023),#1026);
#1023 = B_SPLINE_CURVE_WITH_KNOTS('',1,(#1024,#1025),.UNSPECIFIED.,.F.,
  .F.,(2,2),(-8.275,8.275),.PIECEWISE_BEZIER_KNOTS.);
#1024 = CARTESIAN_POINT('',(6.,-8.275));
#1025 = CARTESIAN_POINT('',(6.,8.275));
#1026 = ( GEOMETRIC_REPRESENTATION_CONTEXT(2) 
PARAMETRIC_REPRESENTATION_CONTEXT() REPRESENTATION_CONTEXT('2D SPACE',''
  ) );
#1027 = ORIENTED_EDGE('',*,*,#373,.T.);
#1028 = ADVANCED_FACE('',(#1029),#419,.T.);
#1029 = FACE_BOUND('',#1030,.T.);
#1030 = EDGE_LOOP('',(#1031,#1053,#1054,#1055));
#1031 = ORIENTED_EDGE('',*,*,#1032,.T.);
#1032 = EDGE_CURVE('',#405,#569,#1033,.T.);
#1033 = SURFACE_CURVE('',#1034,(#1039,#1046),.PCURVE_S1.);
#1034 = CIRCLE('',#1035,10.8);
#1035 = AXIS2_PLACEMENT_3D('',#1036,#1037,#1038);
#1036 = CARTESIAN_POINT('',(0.,0.,0.));
#1037 = DIRECTION('',(1.,0.,0.));
#1038 = DIRECTION('',(0.,1.,0.));
#1039 = PCURVE('',#419,#1040);
#1040 = DEFINITIONAL_REPRESENTATION('',(#1041),#1045);
#1041 = CIRCLE('',#1042,10.8);
#1042 = AXIS2_PLACEMENT_2D('',#1043,#1044);
#1043 = CARTESIAN_POINT('',(4.40872847693E-16,2.53229654174E-16));
#1044 = DIRECTION('',(0.,-1.));
#1045 = ( GEOMETRIC_REPRESENTATION_CONTEXT(2) 
PARAMETRIC_REPRESENTATION_CONTEXT() REPRESENTATION_CONTEXT('2D SPACE',''
  ) );
#1046 = PCURVE('',#504,#1047);
#1047 = DEFINITIONAL_REPRESENTATION('',(#1048),#1052);
#1048 = LINE('',#1049,#1050);
#1049 = CARTESIAN_POINT('',(0.,0.));
#1050 = VECTOR('',#1051,1.);
#1051 = DIRECTION('',(1.,0.));
#1052 = ( GEOMETRIC_REPRESENTATION_CONTEXT(2) 
PARAMETRIC_REPRESENTATION_CONTEXT() REPRESENTATION_CONTEXT('2D SPACE',''
  ) );
#1053 = ORIENTED_EDGE('',*,*,#678,.T.);
#1054 = ORIENTED_EDGE('',*,*,#1009,.F.);
#1055 = ORIENTED_EDGE('',*,*,#404,.F.);
#1056 = ADVANCED_FACE('',(#1057),#504,.T.);
#1057 = FACE_BOUND('',#1058,.T.);
#1058 = EDGE_LOOP('',(#1059,#1060,#1061));
#1059 = ORIENTED_EDGE('',*,*,#1032,.F.);
#1060 = ORIENTED_EDGE('',*,*,#430,.F.);
#1061 = ORIENTED_EDGE('',*,*,#568,.F.);
#1062 = ADVANCED_FACE('',(#1063),#718,.F.);
#1063 = FACE_BOUND('',#1064,.F.);
#1064 = EDGE_LOOP('',(#1065,#1066,#1088,#1089));
#1065 = ORIENTED_EDGE('',*,*,#700,.F.);
#1066 = ORIENTED_EDGE('',*,*,#1067,.T.);
#1067 = EDGE_CURVE('',#701,#760,#1068,.T.);
#1068 = SURFACE_CURVE('',#1069,(#1074,#1081),.PCURVE_S1.);
#1069 = CIRCLE('',#1070,10.8);
#1070 = AXIS2_PLACEMENT_3D('',#1071,#1072,#1073);
#1071 = CARTESIAN_POINT('',(0.,0.,0.));
#1072 = DIRECTION('',(0.,0.,1.));
#1073 = DIRECTION('',(1.,0.,0.));
#1074 = PCURVE('',#718,#1075);
#1075 = DEFINITIONAL_REPRESENTATION('',(#1076),#1080);
#1076 = CIRCLE('',#1077,10.8);
#1077 = AXIS2_PLACEMENT_2D('',#1078,#1079);
#1078 = CARTESIAN_POINT('',(-2.53229654174E-16,4.40872847693E-16));
#1079 = DIRECTION('',(1.,0.));
#1080 = ( GEOMETRIC_REPRESENTATION_CONTEXT(2) 
PARAMETRIC_REPRESENTATION_CONTEXT() REPRESENTATION_CONTEXT('2D SPACE',''
  ) );
#1081 = PCURVE('',#912,#1082);
#1082 = DEFINITIONAL_REPRESENTATION('',(#1083),#1087);
#1083 = LINE('',#1084,#1085);
#1084 = CARTESIAN_POINT('',(-0.,0.));
#1085 = VECTOR('',#1086,1.);
#1086 = DIRECTION('',(-1.,0.));
#1087 = ( GEOMETRIC_REPRESENTATION_CONTEXT(2) 
PARAMETRIC_REPRESENTATION_CONTEXT() REPRESENTATION_CONTEXT('2D SPACE',''
  ) );
#1088 = ORIENTED_EDGE('',*,*,#759,.T.);
#1089 = ORIENTED_EDGE('',*,*,#1090,.T.);
#1090 = EDGE_CURVE('',#731,#703,#1091,.T.);
#1091 = SURFACE_CURVE('',#1092,(#1096,#1102),.PCURVE_S1.);
#1092 = LINE('',#1093,#1094);
#1093 = CARTESIAN_POINT('',(-6.,-2.204364238465E-16,0.));
#1094 = VECTOR('',#1095,1.);
#1095 = DIRECTION('',(0.,1.,0.));
#1096 = PCURVE('',#718,#1097);
#1097 = DEFINITIONAL_REPRESENTATION('',(#1098),#1101);
#1098 = B_SPLINE_CURVE_WITH_KNOTS('',1,(#1099,#1100),.UNSPECIFIED.,.F.,
  .F.,(2,2),(-8.275,8.275),.PIECEWISE_BEZIER_KNOTS.);
#1099 = CARTESIAN_POINT('',(-6.,-8.275));
#1100 = CARTESIAN_POINT('',(-6.,8.275));
#1101 = ( GEOMETRIC_REPRESENTATION_CONTEXT(2) 
PARAMETRIC_REPRESENTATION_CONTEXT() REPRESENTATION_CONTEXT('2D SPACE',''
  ) );
#1102 = PCURVE('',#747,#1103);
#1103 = DEFINITIONAL_REPRESENTATION('',(#1104),#1107);
#1104 = B_SPLINE_CURVE_WITH_KNOTS('',1,(#1105,#1106),.UNSPECIFIED.,.F.,
  .F.,(2,2),(-8.275,8.275),.PIECEWISE_BEZIER_KNOTS.);
#1105 = CARTESIAN_POINT('',(-8.275,0.));
#1106 = CARTESIAN_POINT('',(8.275,0.));
#1107 = ( GEOMETRIC_REPRESENTATION_CONTEXT(2) 
PARAMETRIC_REPRESENTATION_CONTEXT() REPRESENTATION_CONTEXT('2D SPACE',''
  ) );
#1108 = ADVANCED_FACE('',(#1109),#912,.T.);
#1109 = FACE_BOUND('',#1110,.F.);
#1110 = EDGE_LOOP('',(#1111,#1112));
#1111 = ORIENTED_EDGE('',*,*,#1067,.F.);
#1112 = ORIENTED_EDGE('',*,*,#780,.T.);
#1113 = ADVANCED_FACE('',(#1114),#747,.F.);
#1114 = FACE_BOUND('',#1115,.F.);
#1115 = EDGE_LOOP('',(#1116,#1117));
#1116 = ORIENTED_EDGE('',*,*,#730,.T.);
#1117 = ORIENTED_EDGE('',*,*,#1090,.F.);
#1118 = ORIENTED_CLOSED_SHELL('',*,#1119,.F.);
#1119 = CLOSED_SHELL('',(#1120,#1226,#1254,#1281));
#1120 = ADVANCED_FACE('',(#1121),#1136,.T.);
#1121 = FACE_BOUND('',#1122,.T.);
#1122 = EDGE_LOOP('',(#1123,#1159,#1196));
#1123 = ORIENTED_EDGE('',*,*,#1124,.F.);
#1124 = EDGE_CURVE('',#1125,#1127,#1129,.T.);
#1125 = VERTEX_POINT('',#1126);
#1126 = CARTESIAN_POINT('',(-6.,-5.69873889558,6.));
#1127 = VERTEX_POINT('',#1128);
#1128 = CARTESIAN_POINT('',(-6.,5.69873889558,6.));
#1129 = SURFACE_CURVE('',#1130,(#1135,#1147),.PCURVE_S1.);
#1130 = CIRCLE('',#1131,8.275);
#1131 = AXIS2_PLACEMENT_3D('',#1132,#1133,#1134);
#1132 = CARTESIAN_POINT('',(0.,0.,6.));
#1133 = DIRECTION('',(4.733165431326E-30,-1.66765125845E-14,-1.));
#1134 = DIRECTION('',(-0.725075528701,-0.68866935294,1.148460313087E-14)
  );
#1135 = PCURVE('',#1136,#1141);
#1136 = CYLINDRICAL_SURFACE('',#1137,8.275);
#1137 = AXIS2_PLACEMENT_3D('',#1138,#1139,#1140);
#1138 = CARTESIAN_POINT('',(0.,0.,40.));
#1139 = DIRECTION('',(0.,0.,-1.));
#1140 = DIRECTION('',(-1.,0.,0.));
#1141 = DEFINITIONAL_REPRESENTATION('',(#1142),#1146);
#1142 = LINE('',#1143,#1144);
#1143 = CARTESIAN_POINT('',(5.523533041729,34.));
#1144 = VECTOR('',#1145,1.);
#1145 = DIRECTION('',(1.,0.));
#1146 = ( GEOMETRIC_REPRESENTATION_CONTEXT(2) 
PARAMETRIC_REPRESENTATION_CONTEXT() REPRESENTATION_CONTEXT('2D SPACE',''
  ) );
#1147 = PCURVE('',#1148,#1153);
#1148 = PLANE('',#1149);
#1149 = AXIS2_PLACEMENT_3D('',#1150,#1151,#1152);
#1150 = CARTESIAN_POINT('',(0.,0.,6.));
#1151 = DIRECTION('',(0.,0.,-1.));
#1152 = DIRECTION('',(-1.,0.,0.));
#1153 = DEFINITIONAL_REPRESENTATION('',(#1154),#1158);
#1154 = CIRCLE('',#1155,8.275);
#1155 = AXIS2_PLACEMENT_2D('',#1156,#1157);
#1156 = CARTESIAN_POINT('',(0.,0.));
#1157 = DIRECTION('',(0.725075528701,-0.68866935294));
#1158 = ( GEOMETRIC_REPRESENTATION_CONTEXT(2) 
PARAMETRIC_REPRESENTATION_CONTEXT() REPRESENTATION_CONTEXT('2D SPACE',''
  ) );
#1159 = ORIENTED_EDGE('',*,*,#1160,.T.);
#1160 = EDGE_CURVE('',#1125,#1161,#1163,.T.);
#1161 = VERTEX_POINT('',#1162);
#1162 = CARTESIAN_POINT('',(-8.275,-2.026790452589E-15,8.275));
#1163 = SURFACE_CURVE('',#1164,(#1169,#1180),.PCURVE_S1.);
#1164 = ELLIPSE('',#1165,11.702617228637,8.275);
#1165 = AXIS2_PLACEMENT_3D('',#1166,#1167,#1168);
#1166 = CARTESIAN_POINT('',(0.,0.,0.));
#1167 = DIRECTION('',(-0.707106781187,0.,-0.707106781187));
#1168 = DIRECTION('',(0.707106781187,0.,-0.707106781187));
#1169 = PCURVE('',#1136,#1170);
#1170 = DEFINITIONAL_REPRESENTATION('',(#1171),#1179);
#1171 = B_SPLINE_CURVE_WITH_KNOTS('',6,(#1172,#1173,#1174,#1175,#1176,
    #1177,#1178),.UNSPECIFIED.,.F.,.F.,(7,7),(2.381940388139,
    3.14159265359),.PIECEWISE_BEZIER_KNOTS.);
#1172 = CARTESIAN_POINT('',(5.523533041729,34.));
#1173 = CARTESIAN_POINT('',(5.650141752637,33.278490014627));
#1174 = CARTESIAN_POINT('',(5.776750463546,32.672394898155));
#1175 = CARTESIAN_POINT('',(5.903359174454,32.202528601628));
#1176 = CARTESIAN_POINT('',(6.029967885363,31.884175105767));
#1177 = CARTESIAN_POINT('',(6.156576596271,31.725));
#1178 = CARTESIAN_POINT('',(6.28318530718,31.725));
#1179 = ( GEOMETRIC_REPRESENTATION_CONTEXT(2) 
PARAMETRIC_REPRESENTATION_CONTEXT() REPRESENTATION_CONTEXT('2D SPACE',''
  ) );
#1180 = PCURVE('',#1181,#1186);
#1181 = CYLINDRICAL_SURFACE('',#1182,8.275);
#1182 = AXIS2_PLACEMENT_3D('',#1183,#1184,#1185);
#1183 = CARTESIAN_POINT('',(-40.,0.,0.));
#1184 = DIRECTION('',(1.,0.,0.));
#1185 = DIRECTION('',(0.,1.,0.));
#1186 = DEFINITIONAL_REPRESENTATION('',(#1187),#1195);
#1187 = B_SPLINE_CURVE_WITH_KNOTS('',6,(#1188,#1189,#1190,#1191,#1192,
    #1193,#1194),.UNSPECIFIED.,.F.,.F.,(7,7),(2.381940282853,
    3.14159265359),.PIECEWISE_BEZIER_KNOTS.);
#1188 = CARTESIAN_POINT('',(2.330448697532,34.0000006));
#1189 = CARTESIAN_POINT('',(2.203839969076,33.278490434646));
#1190 = CARTESIAN_POINT('',(2.07723124062,32.672395158645));
#1191 = CARTESIAN_POINT('',(1.950622512163,32.202528733997));
#1192 = CARTESIAN_POINT('',(1.824013783707,31.88417514989));
#1193 = CARTESIAN_POINT('',(1.697405055251,31.725));
#1194 = CARTESIAN_POINT('',(1.570796326795,31.725));
#1195 = ( GEOMETRIC_REPRESENTATION_CONTEXT(2) 
PARAMETRIC_REPRESENTATION_CONTEXT() REPRESENTATION_CONTEXT('2D SPACE',''
  ) );
#1196 = ORIENTED_EDGE('',*,*,#1197,.T.);
#1197 = EDGE_CURVE('',#1161,#1127,#1198,.T.);
#1198 = SURFACE_CURVE('',#1199,(#1204,#1215),.PCURVE_S1.);
#1199 = ELLIPSE('',#1200,11.702617228637,8.275);
#1200 = AXIS2_PLACEMENT_3D('',#1201,#1202,#1203);
#1201 = CARTESIAN_POINT('',(0.,0.,0.));
#1202 = DIRECTION('',(-0.707106781187,0.,-0.707106781187));
#1203 = DIRECTION('',(0.707106781187,0.,-0.707106781187));
#1204 = PCURVE('',#1136,#1205);
#1205 = DEFINITIONAL_REPRESENTATION('',(#1206),#1214);
#1206 = B_SPLINE_CURVE_WITH_KNOTS('',6,(#1207,#1208,#1209,#1210,#1211,
    #1212,#1213),.UNSPECIFIED.,.F.,.F.,(7,7),(3.14159265359,
    3.901244919041),.PIECEWISE_BEZIER_KNOTS.);
#1207 = CARTESIAN_POINT('',(6.28318530718,31.725));
#1208 = CARTESIAN_POINT('',(6.409794018088,31.725));
#1209 = CARTESIAN_POINT('',(6.536402728997,31.884175105768));
#1210 = CARTESIAN_POINT('',(6.663011439905,32.202528601628));
#1211 = CARTESIAN_POINT('',(6.789620150813,32.672394898155));
#1212 = CARTESIAN_POINT('',(6.916228861722,33.278490014627));
#1213 = CARTESIAN_POINT('',(7.04283757263,34.));
#1214 = ( GEOMETRIC_REPRESENTATION_CONTEXT(2) 
PARAMETRIC_REPRESENTATION_CONTEXT() REPRESENTATION_CONTEXT('2D SPACE',''
  ) );
#1215 = PCURVE('',#1181,#1216);
#1216 = DEFINITIONAL_REPRESENTATION('',(#1217),#1225);
#1217 = B_SPLINE_CURVE_WITH_KNOTS('',6,(#1218,#1219,#1220,#1221,#1222,
    #1223,#1224),.UNSPECIFIED.,.F.,.F.,(7,7),(3.14159265359,
    3.901245024327),.PIECEWISE_BEZIER_KNOTS.);
#1218 = CARTESIAN_POINT('',(1.570796326795,31.725));
#1219 = CARTESIAN_POINT('',(1.444187598339,31.725));
#1220 = CARTESIAN_POINT('',(1.317578869882,31.88417514989));
#1221 = CARTESIAN_POINT('',(1.190970141426,32.202528733997));
#1222 = CARTESIAN_POINT('',(1.06436141297,32.672395158645));
#1223 = CARTESIAN_POINT('',(0.937752684514,33.278490434646));
#1224 = CARTESIAN_POINT('',(0.811143956058,34.0000006));
#1225 = ( GEOMETRIC_REPRESENTATION_CONTEXT(2) 
PARAMETRIC_REPRESENTATION_CONTEXT() REPRESENTATION_CONTEXT('2D SPACE',''
  ) );
#1226 = ADVANCED_FACE('',(#1227),#1148,.T.);
#1227 = FACE_BOUND('',#1228,.T.);
#1228 = EDGE_LOOP('',(#1229,#1230));
#1229 = ORIENTED_EDGE('',*,*,#1124,.T.);
#1230 = ORIENTED_EDGE('',*,*,#1231,.T.);
#1231 = EDGE_CURVE('',#1127,#1125,#1232,.T.);
#1232 = SURFACE_CURVE('',#1233,(#1237,#1243),.PCURVE_S1.);
#1233 = LINE('',#1234,#1235);
#1234 = CARTESIAN_POINT('',(-6.,0.,6.));
#1235 = VECTOR('',#1236,1.);
#1236 = DIRECTION('',(0.,-1.,0.));
#1237 = PCURVE('',#1148,#1238);
#1238 = DEFINITIONAL_REPRESENTATION('',(#1239),#1242);
#1239 = B_SPLINE_CURVE_WITH_KNOTS('',1,(#1240,#1241),.UNSPECIFIED.,.F.,
  .F.,(2,2),(-8.275,8.275),.PIECEWISE_BEZIER_KNOTS.);
#1240 = CARTESIAN_POINT('',(6.,8.275));
#1241 = CARTESIAN_POINT('',(6.,-8.275));
#1242 = ( GEOMETRIC_REPRESENTATION_CONTEXT(2) 
PARAMETRIC_REPRESENTATION_CONTEXT() REPRESENTATION_CONTEXT('2D SPACE',''
  ) );
#1243 = PCURVE('',#1244,#1249);
#1244 = PLANE('',#1245);
#1245 = AXIS2_PLACEMENT_3D('',#1246,#1247,#1248);
#1246 = CARTESIAN_POINT('',(-6.,0.,0.));
#1247 = DIRECTION('',(1.,0.,0.));
#1248 = DIRECTION('',(0.,1.,0.));
#1249 = DEFINITIONAL_REPRESENTATION('',(#1250),#1253);
#1250 = B_SPLINE_CURVE_WITH_KNOTS('',1,(#1251,#1252),.UNSPECIFIED.,.F.,
  .F.,(2,2),(-8.275,8.275),.PIECEWISE_BEZIER_KNOTS.);
#1251 = CARTESIAN_POINT('',(8.275,6.));
#1252 = CARTESIAN_POINT('',(-8.275,6.));
#1253 = ( GEOMETRIC_REPRESENTATION_CONTEXT(2) 
PARAMETRIC_REPRESENTATION_CONTEXT() REPRESENTATION_CONTEXT('2D SPACE',''
  ) );
#1254 = ADVANCED_FACE('',(#1255),#1181,.T.);
#1255 = FACE_BOUND('',#1256,.T.);
#1256 = EDGE_LOOP('',(#1257,#1279,#1280));
#1257 = ORIENTED_EDGE('',*,*,#1258,.F.);
#1258 = EDGE_CURVE('',#1127,#1125,#1259,.T.);
#1259 = SURFACE_CURVE('',#1260,(#1265,#1272),.PCURVE_S1.);
#1260 = CIRCLE('',#1261,8.275);
#1261 = AXIS2_PLACEMENT_3D('',#1262,#1263,#1264);
#1262 = CARTESIAN_POINT('',(-6.,0.,0.));
#1263 = DIRECTION('',(1.,0.,0.));
#1264 = DIRECTION('',(0.,1.,0.));
#1265 = PCURVE('',#1181,#1266);
#1266 = DEFINITIONAL_REPRESENTATION('',(#1267),#1271);
#1267 = LINE('',#1268,#1269);
#1268 = CARTESIAN_POINT('',(0.,34.));
#1269 = VECTOR('',#1270,1.);
#1270 = DIRECTION('',(1.,0.));
#1271 = ( GEOMETRIC_REPRESENTATION_CONTEXT(2) 
PARAMETRIC_REPRESENTATION_CONTEXT() REPRESENTATION_CONTEXT('2D SPACE',''
  ) );
#1272 = PCURVE('',#1244,#1273);
#1273 = DEFINITIONAL_REPRESENTATION('',(#1274),#1278);
#1274 = CIRCLE('',#1275,8.275);
#1275 = AXIS2_PLACEMENT_2D('',#1276,#1277);
#1276 = CARTESIAN_POINT('',(0.,0.));
#1277 = DIRECTION('',(1.,0.));
#1278 = ( GEOMETRIC_REPRESENTATION_CONTEXT(2) 
PARAMETRIC_REPRESENTATION_CONTEXT() REPRESENTATION_CONTEXT('2D SPACE',''
  ) );
#1279 = ORIENTED_EDGE('',*,*,#1197,.F.);
#1280 = ORIENTED_EDGE('',*,*,#1160,.F.);
#1281 = ADVANCED_FACE('',(#1282),#1244,.T.);
#1282 = FACE_BOUND('',#1283,.T.);
#1283 = EDGE_LOOP('',(#1284,#1285));
#1284 = ORIENTED_EDGE('',*,*,#1231,.F.);
#1285 = ORIENTED_EDGE('',*,*,#1258,.T.);
#1286 = ( GEOMETRIC_REPRESENTATION_CONTEXT(3) 
GLOBAL_UNCERTAINTY_ASSIGNED_CONTEXT((#1290)) 
GLOBAL_UNIT_ASSIGNED_CONTEXT((#1287,#1288,#1289)) REPRESENTATION_CONTEXT
('Context #1','3D Context with UNIT and UNCERTAINTY') );
#1287 = ( LENGTH_UNIT() NAMED_UNIT(*) SI_UNIT(.MILLI.,.METRE.) );
#1288 = ( NAMED_UNIT(*) PLANE_ANGLE_UNIT() SI_UNIT($,.RADIAN.) );
#1289 = ( NAMED_UNIT(*) SI_UNIT($,.STERADIAN.) SOLID_ANGLE_UNIT() );
#1290 = UNCERTAINTY_MEASURE_WITH_UNIT(LENGTH_MEASURE(1.E-07),#1287,
  'distance_accuracy_value','confusion accuracy');
#1291 = PRODUCT_RELATED_PRODUCT_CATEGORY('part',$,(#7));
ENDSEC;
END-ISO-10303-21;
